<?xml version="1.0" encoding="UTF-8" standalone="no"?>
<!DOCTYPE svg PUBLIC "-//W3C//DTD SVG 1.1//EN" "http://www.w3.org/Graphics/SVG/1.1/DTD/svg11.dtd">
<svg width="100%" height="100%" viewBox="0 0 96 96" version="1.1" xmlns="http://www.w3.org/2000/svg" xmlns:xlink="http://www.w3.org/1999/xlink" xml:space="preserve" xmlns:serif="http://www.serif.com/" style="fill-rule:evenodd;clip-rule:evenodd;stroke-linecap:round;stroke-linejoin:round;stroke-miterlimit:1.5;">
    <g transform="matrix(0.847061,-0.321712,0.338557,0.891414,-11.671,21.0751)">
        <ellipse cx="53.766" cy="41.534" rx="36.325" ry="22.945" style="fill:none;stroke:rgb(248,248,248);stroke-width:12.9px;"/>
    </g>
    <g transform="matrix(0.980185,0,0,0.980185,-7.69472,-2.89629)">
        <ellipse cx="50.906" cy="68.386" rx="10.658" ry="7.059" style="fill:none;stroke:rgb(248,248,248);stroke-width:10.2px;"/>
    </g>
    <g transform="matrix(0.695793,0.569576,-0.569576,0.695793,42.6222,-4.443)">
        <path d="M49.168,70.413C49.168,73.996 50.652,77.352 47.25,79.9C44.738,81.783 41.596,83.554 40.391,86.56C40.297,86.795 39.096,88.86 39.21,88.974" style="fill:none;stroke:rgb(248,248,248);stroke-width:11.12px;"/>
    </g>
    <g transform="matrix(0.847061,-0.321712,0.338557,0.891414,-11.671,21.0751)">
        <ellipse cx="53.766" cy="41.534" rx="36.325" ry="22.945" style="fill:none;stroke:rgb(38,38,38);stroke-width:6.45px;"/>
    </g>
    <g transform="matrix(0.980185,0,0,0.980185,-7.69472,-2.89629)">
        <ellipse cx="50.906" cy="68.386" rx="10.658" ry="7.059" style="fill:none;stroke:rgb(38,38,38);stroke-width:4.08px;"/>
    </g>
    <g transform="matrix(0.695793,0.569576,-0.569576,0.695793,42.6222,-4.443)">
        <path d="M49.168,70.413C49.168,73.996 50.652,77.352 47.25,79.9C44.738,81.783 41.596,83.554 40.391,86.56C40.297,86.795 39.096,88.86 39.21,88.974" style="fill:none;stroke:rgb(38,38,38);stroke-width:4.45px;"/>
    </g>
</svg>
