<?xml version="1.0" encoding="UTF-8" standalone="no"?>
<!DOCTYPE svg PUBLIC "-//W3C//DTD SVG 1.1//EN" "http://www.w3.org/Graphics/SVG/1.1/DTD/svg11.dtd">
<svg width="100%" height="100%" viewBox="0 0 40 40" version="1.1" xmlns="http://www.w3.org/2000/svg" xmlns:xlink="http://www.w3.org/1999/xlink" xml:space="preserve" xmlns:serif="http://www.serif.com/" style="fill-rule:evenodd;clip-rule:evenodd;stroke-linecap:round;stroke-miterlimit:20;">
    <path d="M37.802,38.449L1.175,38.449L1.175,2.686C1.978,2.665 2.694,2.798 2.989,3.002C3.939,3.656 4.542,4.499 5.134,5.567C5.862,6.882 6.48,8.146 7.263,9.319C8.304,10.877 9.215,12.535 10.157,14.157C10.551,14.835 10.79,15.5 11.169,16.186C12.113,16.55 13.533,17.231 14.337,17.466C16.194,18.008 17.224,18.304 18.798,17.708C21.331,16.749 24.359,13.29 25.395,11.41C26.457,9.479 26.737,8.044 27.117,5.344C27.132,5.239 35.912,10.247 36.041,10.279C36.011,10.369 36.138,11.822 35.889,12.753C35.646,13.662 35.059,14.837 34.491,15.587C32.805,17.817 30.628,19.262 28.195,20.734C25.912,22.116 22.907,23.739 20,23.497C18.213,23.348 17.179,23.13 15.091,22.735C15.152,22.831 17.708,26.23 19.246,28.448C20.086,29.659 21.774,30.742 23.164,31.497C25.817,32.939 37.569,35.781 37.802,38.449Z" style="fill:rgb(229,188,169);fill-opacity:0.54;stroke:rgb(247,211,196);stroke-width:0.5px;"/>
    <path d="M26.797,25.479L29.785,25.479L29.785,22.49L33.811,22.49L33.811,25.479L36.799,25.479L36.799,29.505L33.811,29.505L33.811,32.493L29.785,32.493L29.785,29.505L26.797,29.505L26.797,25.479Z" style="fill:rgb(40,40,40);fill-opacity:0.54;stroke:rgb(247,211,196);stroke-width:0.5px;stroke-linejoin:round;stroke-miterlimit:1.5;"/>
    <path d="M11.337,16.309C11.384,16.309 10,16.456 9.474,16.682C8.272,17.197 7.4,18.15 6.774,19.29C6.146,20.432 5.473,21.735 5.117,22.999C4.953,23.58 4.902,24.144 4.796,24.733C4.683,25.362 4.609,25.985 4.609,26.625C4.609,26.838 4.578,27.643 4.578,27.604C4.578,27.465 5.527,26.103 5.974,25.661C7.179,24.468 8.844,23.645 10.464,23.148C11.044,22.97 11.575,22.744 12.189,22.709C12.76,22.677 13.493,22.536 14.06,22.654C14.224,22.689 14.54,22.733 14.969,22.837" style="fill:none;stroke:rgb(160,114,94);stroke-opacity:0.5;stroke-width:1px;stroke-linecap:butt;stroke-miterlimit:1.5;stroke-dasharray:1,1;"/>
</svg>
