<?xml version="1.0" encoding="UTF-8" standalone="no"?>
<!DOCTYPE svg PUBLIC "-//W3C//DTD SVG 1.1//EN" "http://www.w3.org/Graphics/SVG/1.1/DTD/svg11.dtd">
<svg width="100%" height="100%" viewBox="0 0 40 40" version="1.1" xmlns="http://www.w3.org/2000/svg" xmlns:xlink="http://www.w3.org/1999/xlink" xml:space="preserve" xmlns:serif="http://www.serif.com/" style="fill-rule:evenodd;clip-rule:evenodd;stroke-linecap:round;stroke-miterlimit:20;">
    <path d="M37.802,38.449L1.175,38.449L1.175,2.686C1.978,2.665 2.694,2.798 2.989,3.002C3.939,3.656 4.542,4.499 5.134,5.567C5.862,6.882 6.48,8.146 7.263,9.319C8.304,10.877 9.215,12.535 10.157,14.157C10.551,14.835 10.79,15.5 11.169,16.186C11.353,16.257 15.091,22.735 15.091,22.735C15.152,22.831 17.708,26.23 19.246,28.448C20.086,29.659 21.774,30.742 23.164,31.497C25.817,32.938 37.569,35.781 37.802,38.449Z" style="fill:rgb(169,219,229);fill-opacity:0.25;stroke:rgb(162,216,227);stroke-width:0.5px;"/>
    <g transform="matrix(1,0,0,1,0,1)">
        <path d="M4.262,27.583C4.271,27.584 4.396,26.777 4.453,26.489C4.608,25.715 4.653,24.853 4.796,24.048C4.991,22.945 5.303,22.224 5.778,21.218C6.396,19.913 7.186,18.345 8.3,17.382C9.278,16.536 11.286,16.367 12.541,16.743C12.881,16.845 14.467,17.638 14.783,17.784C15.216,17.983 16.315,18.229 16.791,18.257C17.697,18.309 18.165,18.259 19.538,17.558C21.632,16.49 23.558,14.29 24.973,12.426C25.659,11.522 26.128,10.778 26.481,9.473C26.721,8.585 27.127,5.54 27.284,5.518C27.467,5.494 35.649,10.185 35.871,10.549C35.925,10.636 35.876,12.256 35.662,12.972C35.147,14.691 33.946,15.49 32.787,16.856C31.726,18.106 30.906,18.894 29.5,19.738C29.09,19.984 28.228,20.534 27.814,20.773C26.852,21.327 23.978,22.5 23.46,22.715C22.579,23.081 20.782,23.203 19.69,23.169C17.193,23.091 15.434,22.534 12.838,22.641C11.118,22.712 9.422,23.493 7.907,24.287C7.267,24.622 6.672,25.017 6.098,25.47C5.335,26.072 4.262,27.583 4.262,27.583Z" style="fill:rgb(148,183,191);stroke:rgb(148,183,191);stroke-width:1px;stroke-linecap:butt;"/>
    </g>
    <path d="M4.262,27.583C4.271,27.584 4.396,26.777 4.453,26.489C4.608,25.715 4.653,24.853 4.796,24.048C4.991,22.945 5.303,22.224 5.778,21.218C6.396,19.913 7.186,18.345 8.3,17.382C9.278,16.536 11.286,16.367 12.541,16.743C12.881,16.845 14.467,17.638 14.783,17.784C15.216,17.983 16.315,18.229 16.791,18.257C17.697,18.309 18.165,18.259 19.538,17.558C21.632,16.49 23.558,14.29 24.973,12.426C25.659,11.522 26.128,10.778 26.481,9.473C26.721,8.585 27.127,5.54 27.284,5.518C27.467,5.494 35.649,10.185 35.871,10.549C35.925,10.636 35.876,12.256 35.662,12.972C35.147,14.691 33.946,15.49 32.787,16.856C31.726,18.106 30.906,18.894 29.5,19.738C29.09,19.984 28.228,20.534 27.814,20.773C26.852,21.327 23.978,22.5 23.46,22.715C22.579,23.081 20.782,23.203 19.69,23.169C17.193,23.091 15.434,22.534 12.838,22.641C11.118,22.712 9.422,23.493 7.907,24.287C7.267,24.622 6.672,25.017 6.098,25.47C5.335,26.072 4.262,27.583 4.262,27.583Z" style="fill:rgb(208,235,241);stroke:rgb(195,237,245);stroke-width:1px;stroke-linecap:butt;"/>
</svg>
