<?xml version="1.0" encoding="UTF-8" standalone="no"?>
<!DOCTYPE svg PUBLIC "-//W3C//DTD SVG 1.1//EN" "http://www.w3.org/Graphics/SVG/1.1/DTD/svg11.dtd">
<svg width="100%" height="100%" viewBox="0 0 96 96" version="1.1" xmlns="http://www.w3.org/2000/svg" xmlns:xlink="http://www.w3.org/1999/xlink" xml:space="preserve" xmlns:serif="http://www.serif.com/" style="fill-rule:evenodd;clip-rule:evenodd;stroke-linecap:round;stroke-linejoin:round;stroke-miterlimit:1.5;">
    <g transform="matrix(1,0,0,1,-0.0362903,-1.66532)">
        <g transform="matrix(0.964183,0,0,1,-0.612931,-4.36634)">
            <path d="M54.811,39.537C54.811,34.508 50.576,30.425 45.36,30.425L19.744,30.425C14.528,30.425 10.294,34.508 10.294,39.537L10.294,57.761C10.294,62.791 14.528,66.873 19.744,66.873L45.36,66.873C50.576,66.873 54.811,62.791 54.811,57.761L54.811,39.537Z" style="fill:none;stroke:rgb(248,248,248);stroke-opacity:0.29;stroke-width:10.18px;"/>
        </g>
        <g transform="matrix(0.964183,0,0,1,10.8291,6.23446)">
            <path d="M54.811,39.537C54.811,34.508 50.576,30.425 45.36,30.425L19.744,30.425C14.528,30.425 10.294,34.508 10.294,39.537L10.294,57.761C10.294,62.791 14.528,66.873 19.744,66.873L45.36,66.873C50.576,66.873 54.811,62.791 54.811,57.761L54.811,39.537Z" style="fill:none;stroke:rgb(248,248,248);stroke-opacity:0.6;stroke-width:10.18px;"/>
        </g>
        <g transform="matrix(0.964183,0,0,1,22.7893,16.2042)">
            <path d="M54.811,39.537C54.811,34.508 50.576,30.425 45.36,30.425L19.744,30.425C14.528,30.425 10.294,34.508 10.294,39.537L10.294,57.761C10.294,62.791 14.528,66.873 19.744,66.873L45.36,66.873C50.576,66.873 54.811,62.791 54.811,57.761L54.811,39.537Z" style="fill:none;stroke:rgb(248,248,248);stroke-width:10.18px;"/>
        </g>
        <g transform="matrix(0.964183,0,0,1,0.148158,-2.75605)">
            <path d="M54.811,39.537C54.811,34.508 50.576,30.425 45.36,30.425L19.744,30.425C14.528,30.425 10.294,34.508 10.294,39.537L10.294,57.761C10.294,62.791 14.528,66.873 19.744,66.873L45.36,66.873C50.576,66.873 54.811,62.791 54.811,57.761L54.811,39.537Z" style="fill:none;stroke:rgb(34,100,113);stroke-opacity:0.3;stroke-width:6.11px;"/>
        </g>
        <g transform="matrix(0.964183,0,0,1,11.5902,7.84476)">
            <path d="M54.811,39.537C54.811,34.508 50.576,30.425 45.36,30.425L19.744,30.425C14.528,30.425 10.294,34.508 10.294,39.537L10.294,57.761C10.294,62.791 14.528,66.873 19.744,66.873L45.36,66.873C50.576,66.873 54.811,62.791 54.811,57.761L54.811,39.537Z" style="fill:none;stroke:rgb(34,99,112);stroke-opacity:0.56;stroke-width:6.11px;"/>
        </g>
        <g transform="matrix(0.964183,0,0,1,23.5504,17.8145)">
            <path d="M54.811,39.537C54.811,34.508 50.576,30.425 45.36,30.425L19.744,30.425C14.528,30.425 10.294,34.508 10.294,39.537L10.294,57.761C10.294,62.791 14.528,66.873 19.744,66.873L45.36,66.873C50.576,66.873 54.811,62.791 54.811,57.761L54.811,39.537Z" style="fill:none;stroke:rgb(34,101,114);stroke-width:6.11px;"/>
        </g>
    </g>
    <g transform="matrix(1,0,0,1,33.0295,-9.29089)">
        <g transform="matrix(0.48961,-0.185953,0.195689,0.515247,0.0876628,19.459)">
            <ellipse cx="53.766" cy="41.534" rx="36.325" ry="22.945" style="fill:none;stroke:rgb(248,248,248);stroke-width:11.16px;"/>
        </g>
        <g transform="matrix(0.566557,0,0,0.566557,2.38597,5.60322)">
            <ellipse cx="50.906" cy="68.386" rx="10.658" ry="7.059" style="fill:none;stroke:rgb(248,248,248);stroke-width:10.59px;"/>
        </g>
        <g transform="matrix(0.402176,0.329221,-0.329221,0.402176,31.4696,4.70921)">
            <path d="M49.168,70.413C49.168,73.996 50.652,77.352 47.25,79.9C44.738,81.783 41.596,83.554 40.391,86.56C40.297,86.795 39.096,88.86 39.21,88.974" style="fill:none;stroke:rgb(248,248,248);stroke-width:11.54px;"/>
        </g>
        <g transform="matrix(0.48961,-0.185953,0.195689,0.515247,0.0876628,19.459)">
            <ellipse cx="53.766" cy="41.534" rx="36.325" ry="22.945" style="fill:none;stroke:rgb(38,38,38);stroke-width:5.58px;"/>
        </g>
        <g transform="matrix(0.566557,0,0,0.566557,2.38597,5.60322)">
            <ellipse cx="50.906" cy="68.386" rx="10.658" ry="7.059" style="fill:none;stroke:rgb(38,38,38);stroke-width:5.3px;"/>
        </g>
        <g transform="matrix(0.402176,0.329221,-0.329221,0.402176,31.4696,4.70921)">
            <path d="M49.168,70.413C49.168,73.996 50.652,77.352 47.25,79.9C44.738,81.783 41.596,83.554 40.391,86.56C40.297,86.795 39.096,88.86 39.21,88.974" style="fill:none;stroke:rgb(38,38,38);stroke-width:5.77px;"/>
        </g>
    </g>
</svg>
