<?xml version="1.0" encoding="UTF-8" standalone="no"?>
<!DOCTYPE svg PUBLIC "-//W3C//DTD SVG 1.1//EN" "http://www.w3.org/Graphics/SVG/1.1/DTD/svg11.dtd">
<svg width="100%" height="100%" viewBox="0 0 400 400" version="1.1" xmlns="http://www.w3.org/2000/svg" xmlns:xlink="http://www.w3.org/1999/xlink" xml:space="preserve" xmlns:serif="http://www.serif.com/" style="fill-rule:evenodd;clip-rule:evenodd;stroke-linecap:round;stroke-linejoin:round;stroke-miterlimit:1.5;">
    <g id="Layer2">
        <path d="M230.553,316.186C221.115,316.24 212.776,315.301 206.586,313.168C181.573,304.549 122.116,282.574 90.55,281.486C71.824,280.841 64.456,284.311 48.528,298.966L48.528,219.046C62.357,202.746 68.29,195.155 100.325,188.248C118.177,184.4 156.253,202.572 186.435,213.042C186.796,215.092 187.174,217.15 187.497,219.226C192.646,252.352 206.006,282.745 225.746,309.118C227.415,311.348 229.009,313.73 230.553,316.186ZM245.256,227.64C269.86,231.91 296.809,234.971 312.751,231.22C335.527,225.861 351.09,208.914 351.09,208.914C351.09,208.914 351.623,236.918 351.09,247.4C342.037,260.737 343.397,276.864 317.542,293.885C306.947,300.86 290.602,306.804 273.279,310.797C269.466,303.175 266.903,294.194 264.61,286.802C258.47,267.004 251.879,247.305 245.256,227.64Z" style="fill:rgb(128,128,128);fill-opacity:0.70682;"/>
        <g transform="matrix(1,0,0,1,30.7435,14.2763)">
            <path d="M242.6,30.059L138.718,133.941L217.705,212.928L319.106,111.526L319.106,30.325L242.6,30.059Z" style="fill:rgb(51,51,51);"/>
        </g>
        <g transform="matrix(1,0,0,1,30.7435,14.2763)">
            <path d="M238.989,33.67L138.718,133.941L217.705,212.928L315.496,115.137" style="fill:none;stroke:rgb(205,205,205);stroke-width:10px;"/>
        </g>
        <g transform="matrix(1,0,0,1,43.2464,1.77352)">
            <path d="M98.291,179.183L128.851,148.623L203.071,222.843C203.071,222.843 192.727,232.909 184.464,240.951C178.829,246.434 169.877,246.511 164.15,241.124C143.388,221.598 98.291,179.183 98.291,179.183Z" style="fill:rgb(179,179,179);stroke:rgb(205,205,205);stroke-width:10px;"/>
        </g>
        <g transform="matrix(1,0,0,1,127.737,69.7179)">
            <path d="M137.613,138.005L61.421,61.809L74.361,48.869L150.636,124.981L137.613,138.005Z" style="fill:rgb(128,128,128);stroke:rgb(204,204,204);stroke-width:5px;"/>
        </g>
    </g>
</svg>
