<?xml version="1.0" encoding="UTF-8" standalone="no"?>
<!DOCTYPE svg PUBLIC "-//W3C//DTD SVG 1.1//EN" "http://www.w3.org/Graphics/SVG/1.1/DTD/svg11.dtd">
<svg width="100%" height="100%" viewBox="0 0 96 96" version="1.1" xmlns="http://www.w3.org/2000/svg" xmlns:xlink="http://www.w3.org/1999/xlink" xml:space="preserve" xmlns:serif="http://www.serif.com/" style="fill-rule:evenodd;clip-rule:evenodd;stroke-linecap:round;stroke-linejoin:round;stroke-miterlimit:1.5;">
    <g transform="matrix(0.942026,-0.357779,0.376513,0.991351,-19.9999,15.0297)">
        <ellipse cx="53.766" cy="41.534" rx="36.325" ry="22.945" style="fill:none;stroke:rgb(248,248,248);stroke-width:11.6px;"/>
        <ellipse cx="53.766" cy="41.534" rx="36.325" ry="22.945" style="fill:none;stroke:rgb(38,38,38);stroke-width:5.8px;"/>
    </g>
    <g transform="matrix(1.09007,0,0,1.09007,-15.5778,-11.6292)">
        <ellipse cx="50.906" cy="68.386" rx="10.658" ry="7.059" style="fill:none;stroke:rgb(248,248,248);stroke-width:11.01px;"/>
        <ellipse cx="50.906" cy="68.386" rx="10.658" ry="7.059" style="fill:none;stroke:rgb(38,38,38);stroke-width:5.5px;"/>
    </g>
    <g transform="matrix(0.773799,0.633432,-0.633432,0.773799,40.3801,-13.3493)">
        <path d="M49.168,70.413C49.168,73.996 50.652,77.352 47.25,79.9C44.738,81.783 41.596,83.554 40.391,86.56C40.297,86.795 39.096,88.86 39.21,88.974" style="fill:none;stroke:rgb(248,248,248);stroke-width:12px;"/>
        <path d="M49.168,70.413C49.168,73.996 50.652,77.352 47.25,79.9C44.738,81.783 41.596,83.554 40.391,86.56C40.297,86.795 39.096,88.86 39.21,88.974" style="fill:none;stroke:rgb(38,38,38);stroke-width:6px;"/>
    </g>
    <g transform="matrix(0.942026,-0.357779,0.376513,0.991351,-19.9999,15.0297)">
        <ellipse cx="53.766" cy="41.534" rx="36.325" ry="22.945" style="fill:none;stroke:rgb(38,38,38);stroke-width:5.8px;"/>
        <ellipse cx="53.766" cy="41.534" rx="36.325" ry="22.945" style="fill:none;stroke:rgb(38,38,38);stroke-width:5.8px;"/>
    </g>
    <g transform="matrix(1.09007,0,0,1.09007,-15.5778,-11.6292)">
        <ellipse cx="50.906" cy="68.386" rx="10.658" ry="7.059" style="fill:none;stroke:rgb(38,38,38);stroke-width:5.5px;"/>
        <ellipse cx="50.906" cy="68.386" rx="10.658" ry="7.059" style="fill:none;stroke:rgb(38,38,38);stroke-width:5.5px;"/>
    </g>
    <g transform="matrix(0.773799,0.633432,-0.633432,0.773799,40.3801,-13.3493)">
        <path d="M49.168,70.413C49.168,73.996 50.652,77.352 47.25,79.9C44.738,81.783 41.596,83.554 40.391,86.56C40.297,86.795 39.096,88.86 39.21,88.974" style="fill:none;stroke:rgb(38,38,38);stroke-width:6px;"/>
        <path d="M49.168,70.413C49.168,73.996 50.652,77.352 47.25,79.9C44.738,81.783 41.596,83.554 40.391,86.56C40.297,86.795 39.096,88.86 39.21,88.974" style="fill:none;stroke:rgb(38,38,38);stroke-width:6px;"/>
    </g>
</svg>
