<?xml version="1.0" encoding="UTF-8" standalone="no"?>
<!DOCTYPE svg PUBLIC "-//W3C//DTD SVG 1.1//EN" "http://www.w3.org/Graphics/SVG/1.1/DTD/svg11.dtd">
<svg width="100%" height="100%" viewBox="0 0 36 36" version="1.1" xmlns="http://www.w3.org/2000/svg" xmlns:xlink="http://www.w3.org/1999/xlink" xml:space="preserve" xmlns:serif="http://www.serif.com/" style="fill-rule:evenodd;clip-rule:evenodd;stroke-linecap:round;stroke-linejoin:round;stroke-miterlimit:1.5;">
    <g transform="matrix(1,0,0,1,-378,-361)">
        <g id="Icons">
            <g id="FlipVert" transform="matrix(1,0,0,1,0,282)">
                <g transform="matrix(1.42811,0,0,1.07108,-169.004,-1.73277)">
                    <path d="M406.776,97.06C406.202,102.706 401.427,107.118 395.63,107.118C389.447,107.118 384.426,102.098 384.426,95.915L406.834,95.915L406.776,97.06Z" style="fill:rgb(162,216,227);fill-opacity:0.25;stroke:rgb(162,216,227);stroke-width:0.79px;"/>
                </g>
                <g transform="matrix(1,0,0,0.75,-1.85421,-17.1455)">
                    <path d="M413.854,146.861L381.854,146.861C381.854,138.03 389.024,130.861 397.854,130.861C406.685,130.861 413.854,138.03 413.854,146.861Z" style="fill:rgb(162,216,227);fill-opacity:0.25;stroke:rgb(162,216,227);stroke-width:1.13px;"/>
                </g>
                <g transform="matrix(1.125,0,0,1,-49.5,0)">
                    <path d="M380,97.039L412,96.954" style="fill:none;stroke:rgb(198,247,196);stroke-width:1.88px;stroke-linecap:butt;stroke-dasharray:3.76,3.76,0,0;"/>
                </g>
            </g>
            <g id="FlipHoriz">
            </g>
            <g id="AlignLeft">
            </g>
            <g id="AlignCenter">
            </g>
            <g id="AlignRight">
            </g>
            <g id="AlignBottom">
            </g>
            <g id="AlignMiddle">
            </g>
            <g id="AlignTop">
            </g>
            <g id="OrderBack">
            </g>
            <g id="OrderBehind">
            </g>
            <g id="OrderForward">
            </g>
            <g id="OrderFront">
            </g>
            <g id="Add">
            </g>
            <g id="Subtract">
            </g>
            <g id="Intersect">
            </g>
            <g id="Ungroup">
            </g>
            <g id="Group">
            </g>
        </g>
        <g id="BoundEditorControls">
        </g>
        <g id="Slices">
        </g>
    </g>
</svg>
