<?xml version="1.0" encoding="UTF-8" standalone="no"?>
<!DOCTYPE svg PUBLIC "-//W3C//DTD SVG 1.1//EN" "http://www.w3.org/Graphics/SVG/1.1/DTD/svg11.dtd">
<svg width="100%" height="100%" viewBox="0 0 36 36" version="1.1" xmlns="http://www.w3.org/2000/svg" xmlns:xlink="http://www.w3.org/1999/xlink" xml:space="preserve" xmlns:serif="http://www.serif.com/" style="fill-rule:evenodd;clip-rule:evenodd;stroke-linejoin:round;stroke-miterlimit:1.5;">
    <g transform="matrix(1,0,0,1,-473,-176)">
        <g id="Icons">
            <g id="FlipVert">
            </g>
            <g id="FlipHoriz">
            </g>
            <g id="AlignLeft">
            </g>
            <g id="AlignCenter">
            </g>
            <g id="AlignRight">
            </g>
            <g id="AlignBottom">
            </g>
            <g id="AlignMiddle">
            </g>
            <g id="AlignTop">
            </g>
            <g id="OrderBack">
            </g>
            <g id="OrderBehind">
            </g>
            <g id="OrderForward">
            </g>
            <g id="OrderFront">
            </g>
            <g id="Add">
            </g>
            <g id="Subtract">
            </g>
            <g id="Intersect" transform="matrix(1,0,0,1,0,49)">
                <g transform="matrix(1.38392,0,0,1.4306,-50.8893,12.372)">
                    <ellipse cx="386.503" cy="89.912" rx="6.503" ry="6.291" style="fill:none;stroke:rgb(198,247,196);stroke-width:0.71px;stroke-dasharray:1.42,1.42,0,0;"/>
                </g>
                <g transform="matrix(1.38392,0,0,1.4306,-44.8893,22.372)">
                    <ellipse cx="386.503" cy="89.912" rx="6.503" ry="6.291" style="fill:none;stroke:rgb(198,247,196);stroke-width:0.71px;stroke-dasharray:1.42,1.42,0,0;"/>
                </g>
                <g transform="matrix(1,0,0,1,0,50)">
                    <path d="M481.12,99.529C481.823,95.26 485.534,92 490,92C491.007,92 491.975,92.166 492.88,92.471C492.177,96.74 488.466,100 484,100C482.993,100 482.025,99.834 481.12,99.529Z" style="fill:rgb(162,216,227);fill-opacity:0.5;stroke:rgb(162,216,227);stroke-width:1px;"/>
                </g>
                <g transform="matrix(1.04628,0,0,1,74.9281,49.7956)">
                    <path d="M403.402,91.204C403.402,86.682 403.406,83.204 407.728,83.204C412.051,83.204 412.004,86.682 412.004,91.204" style="fill:none;stroke:rgb(198,247,196);stroke-width:1.95px;stroke-linecap:round;"/>
                </g>
            </g>
            <g id="Ungroup">
            </g>
            <g id="Group">
            </g>
        </g>
        <g id="BoundEditorControls">
        </g>
        <g id="Slices">
        </g>
    </g>
</svg>
