<?xml version="1.0" encoding="UTF-8" standalone="no"?>
<!DOCTYPE svg PUBLIC "-//W3C//DTD SVG 1.1//EN" "http://www.w3.org/Graphics/SVG/1.1/DTD/svg11.dtd">
<svg width="100%" height="100%" viewBox="0 0 65 78" version="1.1" xmlns="http://www.w3.org/2000/svg" xmlns:xlink="http://www.w3.org/1999/xlink" xml:space="preserve" xmlns:serif="http://www.serif.com/" style="fill-rule:evenodd;clip-rule:evenodd;stroke-linecap:round;stroke-linejoin:round;stroke-miterlimit:1.5;">
    <g transform="matrix(1,0,0,1,-230,-76)">
        <g id="Icons">
            <g id="FlipVert">
            </g>
            <g id="FlipHoriz">
            </g>
            <g id="AlignLeft">
            </g>
            <g id="AlignCenter">
            </g>
            <g id="AlignRight">
            </g>
            <g id="AlignBottom">
            </g>
            <g id="AlignMiddle">
            </g>
            <g id="AlignTop">
            </g>
            <g id="OrderBack">
            </g>
            <g id="OrderBehind">
            </g>
            <g id="OrderForward">
            </g>
            <g id="OrderFront">
            </g>
            <g id="Add">
            </g>
            <g id="Subtract">
            </g>
            <g id="Intersect">
            </g>
            <g id="Ungroup">
            </g>
            <g id="Group">
            </g>
        </g>
        <g id="BoundEditorControls">
            <g>
                <g transform="matrix(1.51078,0,0,-1.02441,-152.952,219.569)">
                    <path d="M288.566,90.364C286.313,80.733 280.989,72.788 274.005,68.902" style="fill:none;stroke:rgb(126,126,126);stroke-width:3.1px;"/>
                </g>
                <g transform="matrix(1.51078,0,0,1.02441,-152.955,10.3016)">
                    <path d="M288.566,90.364C286.313,80.733 280.989,72.788 274.005,68.902" style="fill:none;stroke:rgb(126,126,126);stroke-width:3.1px;"/>
                </g>
                <g transform="matrix(0.937386,0,0,1,13.9334,0)">
                    <path d="M232.633,115L275.305,115" style="fill:none;stroke:rgb(126,126,126);stroke-width:4.13px;"/>
                </g>
                <g transform="matrix(0.358368,-0.93358,0.93358,0.358368,92.6435,294.948)">
                    <path d="M260.042,73.093L264.019,80.064L256.064,80.064L260.042,73.093Z" style="fill:none;stroke:rgb(126,126,126);stroke-width:2px;"/>
                </g>
                <g transform="matrix(0.358368,0.93358,0.93358,-0.358368,92.6465,-65.0774)">
                    <path d="M260.042,73.093L264.019,80.064L256.064,80.064L260.042,73.093Z" style="fill:none;stroke:rgb(126,126,126);stroke-width:2px;"/>
                </g>
                <g transform="matrix(0.724138,0,0,0.724138,48.0603,21.2241)">
                    <circle cx="323.75" cy="129.5" r="14.5" style="fill:none;stroke:rgb(126,126,126);stroke-width:5.52px;"/>
                </g>
                <g transform="matrix(0.937386,0,0,1,13.9334,0)">
                    <path d="M232.633,115L275.305,115" style="fill:none;stroke:rgb(198,247,196);stroke-width:2.06px;"/>
                </g>
                <g transform="matrix(0.724138,0,0,0.724138,48.0603,21.2241)">
                    <circle cx="323.75" cy="129.5" r="14.5" style="fill:rgb(152,193,202);fill-opacity:0.6;stroke:rgb(198,247,196);stroke-width:2.76px;"/>
                </g>
                <g transform="matrix(1.51078,0,0,1.02441,-152.955,10.3016)">
                    <path d="M288.566,90.364C286.313,80.733 280.989,72.788 274.005,68.902" style="fill:none;stroke:rgb(198,247,196);stroke-width:1.55px;"/>
                </g>
                <g transform="matrix(0.358368,-0.93358,0.93358,0.358368,92.6435,294.948)">
                    <path d="M260.042,73.093L264.019,80.064L256.064,80.064L260.042,73.093Z" style="fill:rgb(198,247,196);"/>
                </g>
                <g transform="matrix(1.51078,0,0,-1.02441,-152.952,219.569)">
                    <path d="M288.566,90.364C286.313,80.733 280.989,72.788 274.005,68.902" style="fill:none;stroke:rgb(198,247,196);stroke-width:1.55px;"/>
                </g>
                <g transform="matrix(0.358368,0.93358,0.93358,-0.358368,92.6465,-65.0774)">
                    <path d="M260.042,73.093L264.019,80.064L256.064,80.064L260.042,73.093Z" style="fill:rgb(198,247,196);"/>
                </g>
            </g>
        </g>
        <g id="Slices">
        </g>
    </g>
</svg>
