<?xml version="1.0" encoding="UTF-8" standalone="no"?>
<!DOCTYPE svg PUBLIC "-//W3C//DTD SVG 1.1//EN" "http://www.w3.org/Graphics/SVG/1.1/DTD/svg11.dtd">
<svg width="100%" height="100%" viewBox="0 0 400 400" version="1.1" xmlns="http://www.w3.org/2000/svg" xmlns:xlink="http://www.w3.org/1999/xlink" xml:space="preserve" xmlns:serif="http://www.serif.com/" style="fill-rule:evenodd;clip-rule:evenodd;stroke-linejoin:round;stroke-miterlimit:2;">
    <path d="M365,93L35,93L35,307L365,307L365,93ZM353,105L47,105L47,295L353,295L353,105Z" style="fill:rgb(248,248,248);"/>
    <path d="M353,105L47,105L47,295L353,295L353,105ZM341,117L59,117L59,283L341,283L341,117Z" style="fill:rgb(38,38,38);"/>
    <path d="M341,117L59,117L59,283L341,283L341,117ZM329,129L71,129L71,271L329,271L329,129Z" style="fill:rgb(248,248,248);"/>
</svg>
