<?xml version="1.0" encoding="UTF-8" standalone="no"?>
<!DOCTYPE svg PUBLIC "-//W3C//DTD SVG 1.1//EN" "http://www.w3.org/Graphics/SVG/1.1/DTD/svg11.dtd">
<svg width="100%" height="100%" viewBox="0 0 36 36" version="1.1" xmlns="http://www.w3.org/2000/svg" xmlns:xlink="http://www.w3.org/1999/xlink" xml:space="preserve" xmlns:serif="http://www.serif.com/" style="fill-rule:evenodd;clip-rule:evenodd;stroke-linejoin:round;stroke-miterlimit:1.5;">
    <g transform="matrix(1,0,0,1,-378,-176)">
        <g id="Icons">
            <g id="FlipVert">
            </g>
            <g id="FlipHoriz">
            </g>
            <g id="AlignLeft">
            </g>
            <g id="AlignCenter">
            </g>
            <g id="AlignRight">
            </g>
            <g id="AlignBottom">
            </g>
            <g id="AlignMiddle">
            </g>
            <g id="AlignTop">
            </g>
            <g id="OrderBack">
            </g>
            <g id="OrderBehind">
            </g>
            <g id="OrderForward">
            </g>
            <g id="OrderFront">
            </g>
            <g id="Add" transform="matrix(1,0,0,1,0,49)">
                <g transform="matrix(1,0,0,1,0,50)">
                    <path d="M387.12,99.529C383.564,98.327 381,94.96 381,91C381,86.033 385.033,82 390,82C394.967,82 399,86.033 399,91C399,91.501 398.959,91.993 398.88,92.471C402.436,93.673 405,97.04 405,101C405,105.967 400.967,110 396,110C391.033,110 387,105.967 387,101C387,100.499 387.041,100.007 387.12,99.529Z" style="fill:rgb(162,216,227);fill-opacity:0.5;stroke:rgb(162,216,227);stroke-width:1px;"/>
                </g>
                <g transform="matrix(1.04628,0,0,1,-19.0719,49.7956)">
                    <path d="M403.402,87.204L412.004,87.204" style="fill:none;stroke:rgb(198,247,196);stroke-width:1.95px;stroke-linecap:round;"/>
                </g>
                <g transform="matrix(6.40662e-17,-1.04628,1,6.12323e-17,320.296,563.572)">
                    <path d="M403.402,87.204L412.004,87.204" style="fill:none;stroke:rgb(198,247,196);stroke-width:1.95px;stroke-linecap:round;"/>
                </g>
            </g>
            <g id="Subtract">
            </g>
            <g id="Intersect">
            </g>
            <g id="Ungroup">
            </g>
            <g id="Group">
            </g>
        </g>
        <g id="BoundEditorControls">
        </g>
        <g id="Slices">
        </g>
    </g>
</svg>
