<?xml version="1.0" encoding="UTF-8" standalone="no"?>
<!DOCTYPE svg PUBLIC "-//W3C//DTD SVG 1.1//EN" "http://www.w3.org/Graphics/SVG/1.1/DTD/svg11.dtd">
<svg width="100%" height="100%" viewBox="0 0 36 36" version="1.1" xmlns="http://www.w3.org/2000/svg" xmlns:xlink="http://www.w3.org/1999/xlink" xml:space="preserve" xmlns:serif="http://www.serif.com/" style="fill-rule:evenodd;clip-rule:evenodd;stroke-linejoin:round;stroke-miterlimit:1.5;">
    <g transform="matrix(1,0,0,1,-423,-224)">
        <g id="Icons">
            <g id="FlipVert">
            </g>
            <g id="FlipHoriz">
            </g>
            <g id="AlignLeft">
            </g>
            <g id="AlignCenter">
            </g>
            <g id="AlignRight">
            </g>
            <g id="AlignBottom">
            </g>
            <g id="AlignMiddle">
            </g>
            <g id="AlignTop">
            </g>
            <g id="OrderBack">
            </g>
            <g id="OrderBehind" transform="matrix(1,0,0,1,46,146)">
                <g transform="matrix(1,0,0,0.464771,3,52.0344)">
                    <path d="M380,81.687L380,111.809" style="fill:none;stroke:rgb(162,216,227);stroke-width:5.13px;"/>
                </g>
                <g transform="matrix(1,0,0,0.995937,10,0.645075)">
                    <path d="M380,81.687L380,111.809" style="fill:none;stroke:rgb(162,216,227);stroke-width:4.01px;"/>
                </g>
                <g transform="matrix(1,0,0,0.464771,17,52.0344)">
                    <path d="M380,81.687L380,111.809" style="fill:none;stroke:rgb(162,216,227);stroke-width:5.13px;"/>
                </g>
                <g transform="matrix(1.57941,0,0,1.19791,-233.887,-19.2789)">
                    <ellipse cx="405.776" cy="97.414" rx="2.533" ry="3.339" style="fill:rgb(198,247,196);"/>
                </g>
                <g transform="matrix(1,-0,-0,1,377,78)">
                    <path d="M25.085,9.662L19.392,6.114L25.647,3.688L25.085,9.662Z" style="fill:rgb(198,247,196);"/>
                    <path d="M30,19.414C30,16.238 33.042,8.506 24.171,6.563" style="fill:none;stroke:rgb(198,247,196);stroke-width:2px;"/>
                </g>
            </g>
            <g id="OrderForward">
            </g>
            <g id="OrderFront">
            </g>
            <g id="Add">
            </g>
            <g id="Subtract">
            </g>
            <g id="Intersect">
            </g>
            <g id="Ungroup">
            </g>
            <g id="Group">
            </g>
        </g>
        <g id="BoundEditorControls">
        </g>
        <g id="Slices">
        </g>
    </g>
</svg>
