<?xml version="1.0" encoding="UTF-8" standalone="no"?>
<!DOCTYPE svg PUBLIC "-//W3C//DTD SVG 1.1//EN" "http://www.w3.org/Graphics/SVG/1.1/DTD/svg11.dtd">
<svg width="100%" height="100%" viewBox="0 0 184 52" version="1.1" xmlns="http://www.w3.org/2000/svg" xmlns:xlink="http://www.w3.org/1999/xlink" xml:space="preserve" xmlns:serif="http://www.serif.com/" style="fill-rule:evenodd;clip-rule:evenodd;stroke-linecap:round;stroke-linejoin:round;stroke-miterlimit:1.5;">
    <g transform="matrix(1.875,0,0,1.84615,2.01899,2)">
        <path d="M96,13C96,5.825 90.265,0 83.2,0L12.8,0C5.735,0 0,5.825 0,13C0,20.175 5.735,26 12.8,26L83.2,26C90.265,26 96,20.175 96,13Z" style="fill:rgb(35,38,42);stroke:rgb(217,242,230);stroke-width:0.54px;"/>
    </g>
    <g transform="matrix(0.100832,0,0,0.100832,9.8792,5.8337)">
        <path d="M147.575,88.668L177.354,22.91C184.771,21.969 192.33,21.484 200,21.484C207.67,21.484 215.228,21.969 222.645,22.91L252.39,88.652C258.619,91.59 264.563,95.036 270.167,98.937L341.995,91.848C346.435,97.667 350.526,103.766 354.236,110.114L355.185,111.757C358.726,117.967 361.906,124.409 364.694,131.056L322.619,189.706C322.901,193.101 323.044,196.534 323.044,200C323.044,203.453 322.902,206.874 322.622,210.256L364.695,268.944C361.906,275.59 358.726,282.033 355.185,288.243L354.236,289.886C350.526,296.234 346.435,302.333 341.995,308.152L270.198,301.041C264.595,304.944 258.653,308.392 252.425,311.332L222.646,377.09C215.229,378.031 207.671,378.516 200,378.516C192.33,378.516 184.772,378.031 177.355,377.09L147.61,311.348C141.381,308.41 135.437,304.964 129.833,301.063L58.005,308.152C53.565,302.333 49.474,296.234 45.764,289.886L44.815,288.243C41.274,282.033 38.094,275.591 35.306,268.944L77.381,210.294C77.099,206.899 76.956,203.466 76.956,200C76.956,196.547 77.098,193.126 77.378,189.744L35.305,131.056C38.094,124.41 41.274,117.967 44.815,111.757L45.764,110.114C49.474,103.766 53.565,97.667 58.005,91.848L129.802,98.959C135.405,95.056 141.347,91.608 147.575,88.668ZM200,127.889C239.799,127.889 272.111,160.201 272.111,200C272.111,239.799 239.799,272.111 200,272.111C160.201,272.111 127.889,239.799 127.889,200C127.889,160.201 160.201,127.889 200,127.889Z" style="fill:rgb(68,68,68);stroke:rgb(198,247,196);stroke-width:9.92px;stroke-linejoin:miter;"/>
    </g>
    <g transform="matrix(-2,-0.000341998,-0.000341998,2,122.325,-4.02815)">
        <path d="M31.659,13L34.455,17.039L28.862,17.039L31.659,13Z" style="fill:none;stroke:rgb(153,153,153);stroke-width:0.5px;stroke-linejoin:miter;stroke-miterlimit:20;"/>
    </g>
    <g transform="matrix(2,0,0,2,-0.766623,-0.260838)">
        <path d="M35,1.681L35,24.58" style="fill:none;stroke:rgb(126,126,126);stroke-width:0.5px;stroke-linejoin:miter;stroke-miterlimit:20;"/>
    </g>
    <g transform="matrix(2,0,0,2,-0.0322686,0.883841)">
        <rect x="36.055" y="1.55" width="48.004" height="22.015" style="fill:none;"/>
    </g>
</svg>
