<?xml version="1.0" encoding="UTF-8" standalone="no"?>
<!DOCTYPE svg PUBLIC "-//W3C//DTD SVG 1.1//EN" "http://www.w3.org/Graphics/SVG/1.1/DTD/svg11.dtd">
<svg width="100%" height="100%" viewBox="0 0 400 400" version="1.1" xmlns="http://www.w3.org/2000/svg" xmlns:xlink="http://www.w3.org/1999/xlink" xml:space="preserve" xmlns:serif="http://www.serif.com/" style="fill-rule:evenodd;clip-rule:evenodd;stroke-linecap:round;stroke-linejoin:round;stroke-miterlimit:1.5;">
    <g id="Layer2">
        <g transform="matrix(0.91103,0,0,0.91103,17.804,12.0528)">
            <path d="M79.803,195.846C79.803,195.846 77.732,180.161 78.07,173.286C78.408,166.412 80.022,157.832 88.102,157.238C96.181,156.643 100.132,161.35 105.508,169.928C110.884,178.506 209.252,323.389 212.689,328.928C216.125,334.466 225.438,343.611 234.177,337.956C242.917,332.3 356.957,247.087 363.11,242.988C369.264,238.89 370.779,223.409 363.742,211.852C356.706,200.295 277.388,77.52 271.411,68.159C265.433,58.798 263.644,48.594 270.679,43.725C278.188,38.528 285.674,42.458 290.152,46.382C297.108,52.479 300.128,56.134 304.52,59.987" style="fill:none;stroke:rgb(84,84,84);stroke-width:15.37px;"/>
        </g>
        <g transform="matrix(0.91103,0,0,0.91103,17.804,12.0528)">
            <path d="M79.803,195.846C79.803,195.846 77.732,180.161 78.07,173.286C78.408,166.412 80.022,157.832 88.102,157.238C96.181,156.643 100.132,161.35 105.508,169.928C110.884,178.506 209.252,323.389 212.689,328.928C216.125,334.466 225.438,343.611 234.177,337.956C242.917,332.3 356.957,247.087 363.11,242.988C369.264,238.89 370.779,223.409 363.742,211.852C356.706,200.295 277.388,77.52 271.411,68.159C265.433,58.798 263.644,48.594 270.679,43.725C278.188,38.528 285.674,42.458 290.152,46.382C297.108,52.479 300.128,56.134 304.52,59.987" style="fill:none;stroke:rgb(247,247,247);stroke-width:13.17px;"/>
        </g>
        <g transform="matrix(0.91103,0,0,0.91103,17.804,12.0528)">
            <path d="M59.681,336.299C59.681,328.173 54.668,158.92 54.378,154.332C53.746,144.332 59.578,137.614 70.286,136.219C73.836,135.756 299.217,137.1 299.217,137.1C299.217,137.1 350.525,216.782 355.284,223.482C360.042,230.182 356.515,233.875 351.287,237.363C346.058,240.851 242.842,317.3 237.128,321.122C231.414,324.945 227.507,324.608 223.996,319.841C220.485,315.073 112.233,158.345 109.501,155.102C106.77,151.86 105.005,148.016 100.085,146.117C94.811,144.081 84.593,144.307 79.26,146.93C75.814,148.625 66.995,152.066 67.171,158.927C67.348,165.787 70.122,336.254 70.122,336.254C70.122,336.254 80.531,337.199 94.974,341.009C110.235,345.035 129.931,365.21 126.262,367.752C122.21,370.558 116.107,370.142 111.658,370.184C107.06,370.229 104.052,369.773 92.978,370.296C81.903,370.82 82.578,370.268 73.443,370.428C64.308,370.588 57.713,370.401 51.529,370.197C45.345,369.992 40.184,369.913 35.033,369.891C29.46,369.867 21.624,369.295 21.903,364.164C22.183,359.033 25.33,353.253 35.754,344.773C41.46,340.131 46.964,338.408 51.81,337.374" style="fill:none;stroke:rgb(217,217,217);stroke-width:4.39px;"/>
        </g>
        <g transform="matrix(0.91103,0,0,0.91103,17.804,12.0528)">
            <path d="M59.681,336.299C59.681,328.173 54.668,158.92 54.378,154.332C53.746,144.332 59.578,137.614 70.286,136.219C73.836,135.756 299.217,137.1 299.217,137.1C299.217,137.1 350.525,216.782 355.284,223.482C360.042,230.182 356.515,233.875 351.287,237.363C346.058,240.851 242.842,317.3 237.128,321.122C231.414,324.945 227.507,324.608 223.996,319.841C220.485,315.073 112.233,158.345 109.501,155.102C106.77,151.86 105.005,148.016 100.085,146.117C94.811,144.081 84.593,144.307 79.26,146.93C75.814,148.625 66.995,152.066 67.171,158.927C67.348,165.787 70.122,336.254 70.122,336.254C70.122,336.254 80.531,337.199 94.974,341.009C110.235,345.035 129.931,365.21 126.262,367.752C122.21,370.558 116.107,370.142 111.658,370.184C107.06,370.229 104.052,369.773 92.978,370.296C81.903,370.82 82.578,370.268 73.443,370.428C64.308,370.588 57.713,370.401 51.529,370.197C45.345,369.992 40.184,369.913 35.033,369.891C29.46,369.867 21.624,369.295 21.903,364.164C22.183,359.033 25.33,353.253 35.754,344.773C41.46,340.131 46.964,338.408 51.81,337.374" style="fill:rgb(115,115,115);"/>
        </g>
        <g transform="matrix(0.91103,0,0,0.91103,17.804,12.0528)">
            <path d="M294.398,145.756L288.287,149.432L342.549,231.666L348.466,228.075L294.398,145.756Z" style="fill:rgb(241,241,241);"/>
        </g>
        <g transform="matrix(0.91103,0,0,0.91103,15.0202,12.4112)">
            <path d="M90.719,345.339C90.719,345.339 106.419,350.66 118.271,366.269C115.39,355.86 115.252,357.47 110.254,352.579C105.164,347.598 90.719,345.339 90.719,345.339Z" style="fill:rgb(241,241,241);"/>
        </g>
    </g>
</svg>
