<?xml version="1.0" encoding="UTF-8" standalone="no"?>
<!DOCTYPE svg PUBLIC "-//W3C//DTD SVG 1.1//EN" "http://www.w3.org/Graphics/SVG/1.1/DTD/svg11.dtd">
<svg width="100%" height="100%" viewBox="0 0 400 400" version="1.1" xmlns="http://www.w3.org/2000/svg" xmlns:xlink="http://www.w3.org/1999/xlink" xml:space="preserve" xmlns:serif="http://www.serif.com/" style="fill-rule:evenodd;clip-rule:evenodd;stroke-linecap:round;stroke-miterlimit:8;">
    <g id="Layer2" transform="matrix(0.970185,0,0,0.970185,15.476,15.2133)">
        <path d="M236.593,238.304L237.02,238.308L237.447,238.315L237.783,238.323L237.873,238.324L238.299,238.33L238.726,238.34L239.152,238.353L239.578,238.368L240.005,238.387L240.431,238.408L240.857,238.433L241.284,238.46L241.71,238.49L242.136,238.524L242.562,238.56L242.988,238.6L243.414,238.643L243.84,238.688L244.266,238.737L244.691,238.789L245.117,238.844L245.542,238.902L245.957,238.964L246.295,239.017L246.623,239.071L246.95,239.125L247.276,239.181L247.601,239.238L247.925,239.296L248.248,239.355L248.57,239.414L248.891,239.475L249.211,239.536L249.53,239.599L249.848,239.662L250.165,239.726L250.481,239.791L250.703,239.838L250.797,239.854L251.112,239.91L251.426,239.967L251.739,240.025L252.052,240.084L252.363,240.144L252.674,240.205L252.983,240.266L253.292,240.329L253.6,240.392L253.907,240.457L254.213,240.522L254.518,240.588L254.823,240.655L255.126,240.723L255.429,240.792L255.731,240.862L256.032,240.933L256.332,241.004L256.631,241.077L256.929,241.15L257.226,241.224L257.523,241.299L257.819,241.375L258.113,241.452L258.407,241.529L258.7,241.608L258.992,241.687L259.284,241.768L259.574,241.849L259.863,241.931L260.152,242.013L260.44,242.097L260.727,242.182L261.013,242.267L261.298,242.353L261.503,242.416L261.583,242.436L261.869,242.511L262.153,242.587L262.438,242.664L262.721,242.742L263.004,242.82L263.285,242.899L263.566,242.979L263.847,243.06L264.126,243.142L264.405,243.225L264.683,243.308L264.96,243.393L265.236,243.478L265.512,243.564L265.787,243.65L266.061,243.738L266.334,243.826L266.606,243.915L266.878,244.005L267.149,244.096L267.419,244.188L267.688,244.28L267.957,244.373L268.225,244.467L268.492,244.562L268.758,244.657L269.024,244.754L269.288,244.851L269.552,244.949L269.815,245.047L270.078,245.147L270.339,245.247L270.6,245.348L270.86,245.449L271.12,245.552L271.378,245.655L271.636,245.759L271.893,245.863L272.149,245.969L272.405,246.075L272.659,246.181L272.913,246.289L273.167,246.397L273.419,246.506L273.671,246.616L273.922,246.726L274.172,246.837L274.421,246.949L274.67,247.062L274.918,247.175L275.165,247.289L275.411,247.404L275.657,247.519L275.902,247.635L276.146,247.751L276.389,247.869L276.632,247.987L276.874,248.105L277.115,248.225L277.355,248.345L277.595,248.465L277.834,248.587L278.072,248.709L278.309,248.831L278.546,248.955L278.782,249.079L279.017,249.203L279.251,249.328L279.485,249.454L279.718,249.581L279.95,249.708L280.181,249.835L280.412,249.964L280.642,250.093L280.871,250.222L281.1,250.352L281.328,250.483L281.555,250.615L281.781,250.747L282.007,250.879L282.232,251.012L282.456,251.146L282.679,251.28L282.902,251.415L283.124,251.551L283.345,251.687L283.566,251.823L283.786,251.961L284.005,252.098L284.223,252.237L284.409,252.355L284.441,252.375L284.66,252.511L284.878,252.648L285.095,252.786L285.316,252.926L285.743,253.201L286.172,253.481L286.597,253.763L287.02,254.047L287.441,254.333L287.858,254.621L288.273,254.912L288.685,255.204L289.095,255.499L289.502,255.795L289.906,256.093L290.308,256.393L290.707,256.696L291.103,257L291.497,257.306L291.888,257.613L292.277,257.923L292.663,258.234L293.047,258.547L293.428,258.862L293.806,259.178L294.182,259.496L294.556,259.816L294.927,260.138L295.295,260.461L295.661,260.785L296.025,261.112L296.386,261.439L296.745,261.769L297.101,262.099L297.455,262.431L297.807,262.765L298.156,263.1L298.503,263.437L298.848,263.774L299.19,264.113L299.53,264.454L299.868,264.796L300.203,265.139L300.536,265.483L300.867,265.829L301.195,266.175L301.522,266.523L301.846,266.872L302.167,267.223L302.487,267.574L302.805,267.926L303.12,268.28L303.433,268.635L303.744,268.99L304.053,269.347L304.36,269.704L304.664,270.063L304.967,270.423L305.267,270.783L305.566,271.144L305.862,271.507L306.157,271.87L306.449,272.234L306.739,272.599L307.027,272.964L307.314,273.331L307.476,273.54L307.599,273.697L307.884,274.063L308.167,274.429L308.448,274.796L308.727,275.164L309.004,275.533L309.279,275.902L309.553,276.272L309.824,276.642L310.094,277.014L310.362,277.385L310.628,277.757L310.892,278.13L311.154,278.504L311.415,278.877L311.674,279.252L311.931,279.626L312.186,280.001L312.44,280.377L312.692,280.753L312.942,281.129L313.19,281.506L313.437,281.883L313.682,282.26L313.926,282.638L314.168,283.016L314.408,283.394L314.646,283.772L314.883,284.151L315.118,284.53L315.352,284.909L315.584,285.288L315.815,285.667L316.044,286.047L316.271,286.426L316.497,286.806L316.721,287.185L316.944,287.565L317.165,287.945L317.385,288.325L317.603,288.704L317.82,289.084L318.036,289.464L318.25,289.843L318.462,290.222L318.673,290.602L318.883,290.981L319.091,291.36L319.298,291.739L319.503,292.117L319.707,292.496L319.91,292.874L320.111,293.252L320.311,293.63L320.51,294.007L320.707,294.384L320.903,294.761L321.098,295.137L321.292,295.513L321.484,295.889L321.675,296.264L321.864,296.639L322.053,297.013L322.24,297.387L322.426,297.761L322.611,298.133L322.794,298.506L322.976,298.878L323.157,299.249L323.337,299.62L323.516,299.99L323.87,300.728L324.22,301.464L324.565,302.197L324.906,302.926L325.242,303.653L325.574,304.377L325.902,305.097L326.226,305.814L326.546,306.526L326.862,307.235L327.175,307.94L327.483,308.641L327.788,309.338L328.09,310.03L328.388,310.717L328.682,311.4L328.973,312.077L329.261,312.75L329.546,313.417L330.106,314.735L330.654,316.03L330.723,316.193L331.194,317.3L330.587,316.261L330.498,316.109L329.785,314.896L329.058,313.663L328.689,313.039L328.316,312.411L327.94,311.778L327.56,311.141L327.175,310.5L326.787,309.855L326.395,309.207L325.999,308.554L325.599,307.899L325.195,307.24L324.787,306.579L324.374,305.915L323.958,305.248L323.537,304.579L323.112,303.907L322.682,303.234L322.248,302.559L321.81,301.882L321.367,301.203L321.144,300.864L320.92,300.524L320.695,300.184L320.469,299.843L320.241,299.503L320.012,299.162L319.782,298.821L319.551,298.479L319.319,298.138L319.086,297.797L318.851,297.455L318.616,297.113L318.379,296.772L318.141,296.43L317.902,296.088L317.661,295.747L317.42,295.405L317.177,295.064L316.933,294.722L316.688,294.381L316.441,294.04L316.194,293.699L315.945,293.358L315.695,293.017L315.443,292.677L315.191,292.337L314.937,291.997L314.682,291.658L314.426,291.319L314.168,290.98L313.909,290.641L313.649,290.303L313.388,289.966L313.125,289.628L312.861,289.292L312.596,288.955L312.33,288.62L312.062,288.284L311.793,287.95L311.522,287.616L311.251,287.282L310.978,286.949L310.704,286.617L310.428,286.286L310.151,285.955L309.873,285.625L309.594,285.295L309.313,284.967L309.031,284.639L308.747,284.312L308.462,283.986L308.176,283.66L307.889,283.336L307.6,283.012L307.31,282.69L307.018,282.368L306.725,282.047L306.431,281.727L306.135,281.408L305.839,281.091L305.54,280.774L305.24,280.458L304.939,280.144L304.637,279.83L304.333,279.518L304.028,279.207L303.721,278.897L303.413,278.588L303.104,278.281L302.793,277.975L302.659,277.844L302.48,277.671L302.164,277.369L301.846,277.069L301.528,276.77L301.208,276.473L300.886,276.177L300.563,275.882L300.239,275.589L299.913,275.297L299.586,275.007L299.258,274.719L298.928,274.431L298.596,274.146L298.264,273.862L297.929,273.579L297.594,273.298L297.257,273.019L296.919,272.742L296.579,272.466L296.238,272.191L295.895,271.919L295.551,271.648L295.206,271.379L294.859,271.112L294.51,270.847L294.161,270.583L293.809,270.321L293.457,270.061L293.103,269.803L292.747,269.547L292.39,269.293L292.032,269.04L291.672,268.79L291.311,268.542L290.948,268.295L290.584,268.051L290.218,267.809L289.851,267.568L289.482,267.33L289.112,267.094L288.741,266.86L288.368,266.628L287.993,266.398L287.618,266.17L287.24,265.945L286.861,265.721L286.481,265.5L286.099,265.281L285.716,265.065L285.331,264.85L284.945,264.638L284.557,264.428L284.168,264.221L283.777,264.016L283.384,263.813L282.991,263.612L282.595,263.414L282.198,263.218L281.8,263.025L281.4,262.834L280.999,262.646L280.596,262.46L280.187,262.274L279.988,262.185L279.785,262.095L279.581,262.005L279.377,261.916L279.347,261.903L279.171,261.831L278.965,261.746L278.758,261.662L278.551,261.579L278.343,261.497L278.135,261.415L277.927,261.333L277.718,261.253L277.509,261.173L277.3,261.094L277.09,261.015L276.88,260.937L276.669,260.86L276.458,260.783L276.247,260.707L276.035,260.632L275.823,260.557L275.611,260.483L275.398,260.41L275.184,260.337L274.971,260.265L274.757,260.194L274.542,260.124L274.327,260.054L274.112,259.985L273.897,259.916L273.681,259.848L273.464,259.781L273.248,259.715L273.03,259.649L272.813,259.584L272.595,259.52L272.377,259.456L272.158,259.394L271.939,259.331L271.719,259.27L271.499,259.209L271.279,259.149L271.058,259.09L270.837,259.031L270.616,258.973L270.394,258.916L270.171,258.86L269.949,258.804L269.726,258.749L269.502,258.695L269.278,258.641L269.054,258.588L268.829,258.536L268.604,258.485L268.378,258.434L268.152,258.385L267.926,258.335L267.699,258.287L267.471,258.239L267.244,258.192L267.016,258.146L266.787,258.101L266.558,258.056L266.329,258.012L266.099,257.969L265.869,257.927L265.638,257.885L265.407,257.844L265.175,257.804L264.943,257.765L264.711,257.726L264.478,257.689L264.245,257.652L264.011,257.615L263.777,257.58L263.542,257.545L263.307,257.511L263.072,257.478L262.836,257.446L262.6,257.414L262.363,257.383L262.125,257.353L261.888,257.324L261.65,257.296L261.411,257.268L261.172,257.241L260.932,257.215L260.692,257.19L260.452,257.166L260.211,257.142L259.969,257.119L259.728,257.097L259.485,257.076L259.242,257.056L258.999,257.036L258.931,257.031L258.754,257.027L258.507,257.022L258.261,257.018L258.014,257.014L257.766,257.012L257.518,257.01L257.27,257.009L257.021,257.01L256.772,257.011L256.523,257.012L256.273,257.015L256.022,257.019L255.772,257.023L255.521,257.029L255.269,257.035L255.017,257.042L254.765,257.05L254.512,257.059L254.259,257.069L254.005,257.08L253.751,257.091L253.497,257.104L253.242,257.117L252.987,257.131L252.731,257.147L252.475,257.163L252.219,257.18L251.962,257.198L251.704,257.217L251.446,257.236L251.188,257.257L250.929,257.279L250.67,257.301L250.411,257.325L250.151,257.349L249.89,257.374L249.813,257.382L249.629,257.408L249.367,257.446L249.105,257.486L248.843,257.526L248.58,257.567L248.317,257.609L248.053,257.652L247.789,257.696L247.525,257.741L247.26,257.787L246.995,257.834L246.729,257.882L246.463,257.931L246.197,257.981L245.939,258.031L245.643,258.094L245.357,258.158L245.072,258.225L244.788,258.293L244.506,258.363L244.224,258.436L243.944,258.51L243.665,258.586L243.387,258.663L243.11,258.743L242.835,258.824L242.56,258.908L242.286,258.993L242.014,259.08L241.742,259.168L241.471,259.259L241.202,259.351L240.933,259.445L240.666,259.541L240.609,259.561L240.399,259.643L240.135,259.748L239.871,259.854L239.608,259.963L239.346,260.073L239.085,260.184L238.825,260.298L238.565,260.412L238.307,260.529L238.05,260.647L237.793,260.767L237.538,260.888L237.283,261.011L237.029,261.136L236.776,261.262L236.524,261.39L236.272,261.519L236.021,261.65L235.771,261.782L235.522,261.916L235.274,262.051L235.026,262.188L234.779,262.327L234.533,262.467L234.288,262.608L234.043,262.751L233.799,262.895L233.555,263.041L233.313,263.189L233.07,263.337L232.829,263.488L232.588,263.639L232.348,263.792L232.109,263.947L231.87,264.103L231.631,264.26L231.394,264.419L231.156,264.58L230.92,264.741L230.684,264.904L230.449,265.069L230.214,265.234L229.98,265.402L229.746,265.57L229.513,265.74L229.28,265.911L229.048,266.084L228.816,266.258L228.585,266.433L228.355,266.61L228.125,266.788L227.895,266.967L227.666,267.147L227.438,267.329L227.21,267.512L226.982,267.697L226.755,267.883L226.529,268.07L226.303,268.258L226.077,268.447L225.852,268.638L225.627,268.83L225.403,269.023L225.179,269.218L224.956,269.413L224.733,269.61L224.51,269.808L224.288,270.008L224.093,270.185L224.066,270.207L223.84,270.4L223.614,270.594L223.389,270.789L223.164,270.985L222.939,271.183L222.714,271.382L222.49,271.581L222.267,271.783L222.043,271.985L221.82,272.188L221.598,272.393L221.375,272.598L221.153,272.805L220.932,273.013L220.711,273.222L220.49,273.432L220.269,273.643L220.049,273.855L219.829,274.069L219.609,274.283L219.39,274.498L219.171,274.715L218.953,274.932L218.734,275.151L218.517,275.37L218.299,275.591L218.082,275.812L217.865,276.035L217.648,276.258L217.432,276.483L217.216,276.708L217.001,276.934L216.786,277.162L216.571,277.39L216.356,277.619L216.142,277.849L215.928,278.08L215.715,278.312L215.501,278.544L215.289,278.778L215.076,279.012L214.864,279.248L214.652,279.484L214.44,279.721L214.229,279.958L214.018,280.197L213.808,280.436L213.598,280.676L213.388,280.917L213.178,281.159L212.969,281.401L212.76,281.644L212.552,281.888L212.343,282.133L212.135,282.378L211.928,282.624L211.721,282.87L211.514,283.118L211.307,283.366L211.101,283.614L210.895,283.864L210.689,284.114L210.484,284.364L210.286,284.609L209.87,285.12L209.521,285.553L209.457,285.621L209.021,286.095L208.585,286.572L208.15,287.051L207.717,287.532L207.284,288.015L206.852,288.5L206.422,288.988L205.992,289.477L205.564,289.968L205.137,290.46L204.71,290.954L204.285,291.45L203.861,291.947L203.438,292.445L203.016,292.944L202.601,293.437L202.594,293.445L202.148,293.919L201.702,294.395L201.258,294.871L200.815,295.349L200.372,295.827L199.931,296.307L199.49,296.786L199.142,297.168L199.047,297.262L198.587,297.722L198.128,298.182L197.67,298.642L197.213,299.103L196.757,299.564L196.306,300.021L195.663,300.675L195.38,300.934L194.428,301.809L193.481,302.683L192.538,303.555L190.919,305.056L190.653,305.285L189.688,306.115L188.727,306.943L187.771,307.765L186.837,308.563L186.632,308.734L186.445,308.889L186.256,309.044L186.068,309.202L185.878,309.361L185.763,309.458L185.684,309.519L185.484,309.672L185.284,309.828L185.083,309.985L184.889,310.135L184.474,310.466L184.066,310.795L183.655,311.129L183.241,311.47L182.825,311.817L182.406,312.169L181.985,312.527L181.562,312.891L181.136,313.26L180.708,313.634L180.277,314.013L179.844,314.398L179.409,314.787L178.971,315.181L178.531,315.579L178.089,315.982L177.644,316.389L177.197,316.8L176.75,317.212L175.84,318.058L175.405,318.465L174.9,318.893L172.942,320.565L171.949,321.417L170.948,322.274L170.44,322.711L169.931,323.146L169.419,323.583L168.905,324.022L168.388,324.462L167.869,324.903L167.346,325.346L166.821,325.789L166.292,326.233L165.761,326.677L165.227,327.122L164.689,327.567L164.149,328.012L163.605,328.457L163.059,328.902L162.509,329.346L161.955,329.79L161.399,330.233L160.839,330.675L160.281,331.11L159.992,331.336L159.709,331.556L159.424,331.775L159.138,331.994L158.852,332.213L158.564,332.431L158.276,332.649L157.986,332.866L157.696,333.083L157.405,333.3L157.113,333.515L156.82,333.731L156.526,333.945L156.231,334.159L155.935,334.373L155.639,334.586L155.341,334.798L155.042,335.01L154.742,335.22L154.441,335.43L154.14,335.64L153.837,335.848L153.533,336.056L153.229,336.263L152.923,336.469L152.616,336.675L152.308,336.879L151.999,337.083L151.689,337.285L151.379,337.487L151.067,337.687L150.754,337.887L150.439,338.086L150.124,338.283L149.808,338.48L149.491,338.675L149.172,338.87L148.853,339.063L148.532,339.255L148.211,339.446L147.888,339.635L147.564,339.824L147.511,339.854L147.235,340.006L146.905,340.186L146.573,340.365L146.241,340.542L145.907,340.718L145.572,340.893L145.236,341.066L144.9,341.238L144.562,341.408L144.223,341.576L143.883,341.743L143.541,341.909L143.199,342.073L142.856,342.235L142.512,342.396L142.166,342.555L141.82,342.712L141.472,342.867L141.124,343.021L140.774,343.173L140.423,343.323L140.072,343.472L139.719,343.618L139.365,343.763L139.01,343.906L138.654,344.047L138.297,344.186L137.939,344.323L137.58,344.457L137.22,344.59L136.859,344.721L136.497,344.85L136.134,344.977L135.769,345.102L135.404,345.224L135.038,345.344L134.671,345.463L134.303,345.579L133.933,345.692L133.563,345.804L133.192,345.913L132.82,346.02L132.447,346.125L132.073,346.227L131.698,346.327L131.322,346.424L130.945,346.52L130.568,346.612L130.189,346.703L129.809,346.791L129.429,346.876L129.047,346.959L128.665,347.039L128.282,347.117L127.898,347.192L127.513,347.265L127.127,347.335L126.741,347.403L126.353,347.468L125.965,347.53L125.576,347.59L125.186,347.647L124.795,347.701L124.404,347.753L124.011,347.802L123.618,347.848L123.224,347.891L122.83,347.932L122.434,347.97L122.038,348.005L121.641,348.037L121.244,348.067L120.845,348.093L120.446,348.117L120.047,348.138L119.646,348.156L119.245,348.172L118.843,348.184L118.44,348.193L118.037,348.2L117.633,348.204L117.229,348.205L116.823,348.202L116.417,348.197L116.011,348.189L115.603,348.178L115.195,348.165L114.787,348.148L114.378,348.128L113.968,348.105L113.557,348.079L113.146,348.05L112.97,348.037L112.735,348.024L112.323,347.999L111.911,347.971L111.498,347.94L111.084,347.906L110.67,347.869L110.254,347.829L109.838,347.787L109.422,347.741L109.007,347.692L108.695,347.653L108.387,347.613L108.081,347.572L107.775,347.53L107.47,347.487L107.166,347.442L106.863,347.396L106.561,347.349L106.26,347.301L105.96,347.252L105.661,347.201L105.363,347.15L105.065,347.097L104.769,347.043L104.474,346.988L104.179,346.932L103.886,346.875L103.594,346.816L103.302,346.757L103.011,346.696L102.722,346.634L102.433,346.571L102.145,346.507L101.858,346.442L101.572,346.376L101.287,346.309L101.003,346.24L100.72,346.171L100.438,346.101L100.156,346.029L99.876,345.957L99.597,345.883L99.318,345.809L99.04,345.733L98.764,345.656L98.488,345.579L98.213,345.5L97.939,345.42L97.666,345.339L97.394,345.258L97.122,345.175L96.852,345.091L96.582,345.007L96.314,344.921L96.046,344.835L95.779,344.747L95.513,344.659L95.248,344.569L94.984,344.479L94.72,344.387L94.458,344.295L94.196,344.202L93.936,344.108L93.676,344.013L93.417,343.917L93.159,343.82L92.901,343.722L92.645,343.624L92.389,343.524L92.135,343.424L91.881,343.323L91.628,343.221L91.375,343.118L91.124,343.014L90.873,342.909L90.624,342.803L90.375,342.697L90.127,342.59L89.879,342.482L89.633,342.373L89.387,342.263L89.142,342.153L88.898,342.041L88.655,341.929L88.413,341.816L88.171,341.703L87.93,341.588L87.922,341.584L87.681,341.503L87.433,341.418L87.185,341.333L86.937,341.247L86.69,341.159L86.444,341.071L86.198,340.982L85.953,340.892L85.708,340.802L85.463,340.71L85.22,340.618L84.977,340.525L84.734,340.431L84.492,340.336L84.25,340.241L84.009,340.144L83.768,340.047L83.528,339.949L83.289,339.851L83.05,339.751L82.811,339.651L82.573,339.55L82.336,339.448L82.099,339.345L81.862,339.242L81.626,339.138L81.391,339.033L81.156,338.927L80.921,338.821L80.687,338.714L80.454,338.606L80.221,338.497L80.136,338.457L79.987,338.39L79.754,338.283L79.521,338.176L79.288,338.068L79.056,337.959L78.824,337.849L78.593,337.739L78.363,337.628L78.132,337.516L77.902,337.404L77.673,337.291L77.444,337.177L77.215,337.063L76.987,336.947L76.76,336.832L76.533,336.715L76.305,336.598L75.853,336.362L75.403,336.123L74.954,335.881L74.507,335.637L74.061,335.391L73.617,335.142L73.175,334.891L72.734,334.637L72.295,334.381L71.857,334.122L71.421,333.862L70.987,333.599L70.554,333.334L70.122,333.066L69.692,332.797L69.264,332.525L68.837,332.251L68.411,331.975L67.987,331.698L67.564,331.418L67.143,331.136L66.722,330.852L66.612,330.777L66.303,330.568L65.885,330.282L65.468,329.994L65.052,329.705L64.637,329.414L64.224,329.121L63.812,328.826L63.401,328.53L62.991,328.232L62.583,327.933L62.176,327.632L61.77,327.329L61.365,327.025L60.961,326.72L60.558,326.413L60.157,326.104L59.756,325.795L59.357,325.484L58.959,325.171L58.561,324.858L58.165,324.543L57.77,324.227L57.375,323.91L56.982,323.592L56.59,323.272L56.198,322.952L55.808,322.63L55.418,322.308L55.03,321.984L54.642,321.66L54.255,321.335L53.869,321.009L53.483,320.682L53.099,320.354L52.715,320.025L52.333,319.696L51.951,319.366L51.569,319.035L51.189,318.704L50.809,318.372L50.43,318.04L50.051,317.707L49.674,317.373L50.071,317.683L50.468,317.993L50.866,318.302L51.265,318.611L51.665,318.918L52.065,319.225L52.466,319.532L52.867,319.837L53.27,320.142L53.672,320.446L54.076,320.748L54.48,321.05L54.885,321.351L55.291,321.651L55.697,321.95L56.105,322.248L56.513,322.545L56.921,322.84L57.331,323.135L57.741,323.428L58.152,323.72L58.564,324.01L58.977,324.299L59.39,324.587L59.805,324.874L60.22,325.159L60.636,325.442L61.053,325.725L61.471,326.005L61.889,326.284L62.309,326.562L62.729,326.837L63.151,327.111L63.573,327.384L63.996,327.654L64.421,327.923L64.846,328.19L65.272,328.455L65.699,328.718L66.127,328.98L66.556,329.239L66.986,329.496L67.303,329.684L67.417,329.751L67.85,330.003L68.284,330.253L68.719,330.5L69.155,330.745L69.592,330.988L70.03,331.229L70.469,331.468L70.909,331.704L71.351,331.938L71.793,332.169L72.236,332.398L72.681,332.625L73.126,332.849L73.573,333.071L74.021,333.29L74.47,333.506L74.92,333.72L75.371,333.931L75.824,334.14L76.277,334.346L76.732,334.549L77.188,334.749L77.416,334.848L77.645,334.946L77.874,335.044L78.103,335.141L78.333,335.237L78.562,335.333L78.793,335.428L79.023,335.522L79.254,335.615L79.485,335.707L79.716,335.799L79.948,335.89L80.18,335.981L80.412,336.07L80.645,336.159L80.878,336.247L81.026,336.302L81.112,336.333L81.347,336.416L81.582,336.499L81.817,336.58L82.053,336.661L82.289,336.741L82.526,336.82L82.762,336.899L82.999,336.976L83.237,337.053L83.474,337.129L83.712,337.204L83.95,337.278L84.189,337.352L84.428,337.425L84.667,337.496L84.906,337.567L85.146,337.637L85.386,337.707L85.626,337.775L85.867,337.843L86.108,337.909L86.349,337.975L86.591,338.04L86.833,338.104L87.075,338.167L87.318,338.23L87.561,338.291L87.804,338.352L88.048,338.411L88.291,338.47L88.536,338.528L88.772,338.583L88.78,338.584L89.034,338.608L89.288,338.632L89.542,338.654L89.796,338.676L90.05,338.696L90.304,338.715L90.558,338.734L90.812,338.751L91.067,338.768L91.321,338.783L91.576,338.797L91.83,338.811L92.085,338.823L92.34,338.834L92.595,338.844L92.85,338.853L93.105,338.861L93.36,338.868L93.615,338.874L93.871,338.879L94.126,338.883L94.382,338.886L94.637,338.887L94.893,338.888L95.149,338.888L95.405,338.886L95.661,338.884L95.917,338.88L96.173,338.875L96.429,338.869L96.686,338.862L96.942,338.854L97.199,338.845L97.455,338.835L97.712,338.824L97.969,338.811L98.226,338.798L98.483,338.783L98.74,338.768L98.997,338.751L99.255,338.733L99.512,338.714L99.77,338.694L100.027,338.672L100.285,338.65L100.543,338.626L100.801,338.602L101.059,338.576L101.317,338.549L101.575,338.521L101.834,338.491L102.092,338.461L102.351,338.43L102.609,338.397L102.868,338.363L103.127,338.328L103.386,338.292L103.645,338.254L103.905,338.216L104.164,338.176L104.424,338.136L104.683,338.094L104.943,338.05L105.203,338.006L105.463,337.96L105.723,337.914L105.983,337.866L106.244,337.817L106.504,337.767L106.765,337.715L107.026,337.662L107.287,337.609L107.548,337.553L107.81,337.497L108.071,337.44L108.333,337.381L108.591,337.321L108.937,337.24L109.276,337.156L109.613,337.071L109.948,336.984L110.279,336.895L110.608,336.804L110.935,336.712L111.258,336.617L111.58,336.521L111.762,336.465L111.898,336.419L112.213,336.31L112.525,336.199L112.834,336.087L113.141,335.972L113.445,335.857L113.747,335.739L114.046,335.621L114.343,335.5L114.637,335.378L114.928,335.255L115.217,335.13L115.504,335.004L115.788,334.876L116.07,334.747L116.349,334.616L116.626,334.484L116.9,334.35L117.173,334.216L117.442,334.079L117.71,333.942L117.975,333.803L118.239,333.663L118.5,333.522L118.758,333.379L119.015,333.235L119.269,333.09L119.522,332.943L119.772,332.796L120.02,332.647L120.266,332.497L120.51,332.345L120.753,332.193L120.993,332.039L121.231,331.884L121.467,331.728L121.702,331.571L121.934,331.413L122.165,331.254L122.394,331.093L122.621,330.931L122.847,330.769L123.07,330.605L123.292,330.44L123.512,330.274L123.731,330.107L123.948,329.939L124.163,329.77L124.377,329.599L124.589,329.428L124.8,329.256L125.009,329.082L125.217,328.908L125.423,328.732L125.627,328.556L125.831,328.378L126.033,328.2L126.233,328.02L126.432,327.84L126.63,327.658L126.827,327.476L127.022,327.292L127.216,327.108L127.408,326.922L127.6,326.736L127.79,326.548L127.979,326.36L128.167,326.17L128.354,325.98L128.539,325.788L128.724,325.596L128.907,325.402L129.09,325.208L129.271,325.012L129.451,324.816L129.63,324.619L129.809,324.42L129.986,324.221L130.162,324.021L130.338,323.82L130.512,323.618L130.686,323.415L130.858,323.211L131.03,323.005L131.201,322.799L131.371,322.593L131.54,322.385L131.709,322.176L131.876,321.966L132.043,321.755L132.209,321.544L132.375,321.331L132.512,321.152L132.54,321.118L132.709,320.909L132.876,320.699L133.044,320.489L133.21,320.277L133.376,320.064L133.542,319.85L133.706,319.636L133.87,319.42L134.034,319.203L134.197,318.986L134.36,318.767L134.522,318.547L134.683,318.327L134.844,318.105L135.005,317.883L135.165,317.66L135.324,317.435L135.483,317.21L135.642,316.984L135.8,316.757L135.958,316.529L136.115,316.3L136.272,316.07L136.429,315.84L136.585,315.608L136.741,315.375L136.896,315.142L137.051,314.907L137.206,314.672L137.36,314.436L137.515,314.199L137.668,313.961L137.822,313.722L137.975,313.483L138.128,313.242L138.281,313.001L138.433,312.758L138.585,312.515L138.737,312.271L138.889,312.027L139.041,311.781L139.186,311.541L139.494,311.039L139.796,310.54L140.097,310.038L140.397,309.533L140.697,309.025L140.997,308.514L141.296,308L141.595,307.483L141.894,306.963L142.194,306.44L142.493,305.914L142.793,305.385L143.092,304.854L143.393,304.32L143.694,303.783L143.995,303.244L144.297,302.703L144.6,302.158L144.904,301.612L145.206,301.066L145.823,299.957L146.442,298.843L147.698,296.591L148.034,295.994L148.361,295.472L149.054,294.371L149.409,293.813L149.764,293.256L150.121,292.698L150.482,292.138L150.845,291.577L151.211,291.015L151.581,290.452L151.954,289.887L152.331,289.321L152.711,288.755L153.095,288.187L153.483,287.618L153.876,287.049L154.272,286.479L154.673,285.909L155.079,285.337L155.49,284.766L155.905,284.194L156.317,283.631L156.538,283.336L156.752,283.049L156.967,282.763L157.183,282.477L157.269,282.364L157.407,282.196L157.635,281.918L157.865,281.641L158.096,281.363L158.329,281.086L158.545,280.827L159.307,279.896L160.066,278.963L160.842,278.01L161.633,277.037L161.856,276.763L163.32,275.097L164.193,274.106L165.081,273.101L165.984,272.082L166.254,271.779L166.933,271.089L167.426,270.589L167.92,270.09L168.417,269.588L168.919,269.084L169.424,268.578L169.933,268.069L170.039,267.964L170.463,267.576L171.001,267.085L171.543,266.592L172.089,266.098L172.639,265.602L173.192,265.105L173.75,264.607L174.311,264.108L174.32,264.1L174.902,263.635L175.497,263.161L176.095,262.687L176.698,262.213L177.304,261.738L177.913,261.263L178.527,260.788L179.144,260.313L179.765,259.839L180.389,259.364L181.017,258.891L181.649,258.417L182.284,257.945L182.923,257.473L183.566,257.002L184.212,256.533L184.307,256.465L184.888,256.094L185.564,255.669L185.914,255.447L186.258,255.232L186.602,255.017L186.948,254.803L187.294,254.59L187.641,254.377L187.989,254.164L188.338,253.952L188.688,253.741L189.038,253.53L189.389,253.32L189.741,253.11L190.094,252.902L190.448,252.693L190.802,252.486L191.158,252.279L191.514,252.072L191.871,251.867L192.229,251.662L192.587,251.458L192.947,251.254L193.307,251.052L193.668,250.85L194.03,250.649L194.392,250.449L194.756,250.25L195.12,250.051L195.485,249.854L195.851,249.657L196.218,249.461L196.585,249.266L196.953,249.073L197.322,248.88L197.692,248.688L198.063,248.497L198.434,248.307L198.806,248.118L199.179,247.93L199.553,247.743L199.928,247.557L200.303,247.373L200.679,247.189L201.056,247.007L201.434,246.826L201.812,246.646L202.192,246.467L202.572,246.289L202.952,246.113L203.334,245.938L203.716,245.764L204.099,245.591L204.483,245.42L204.868,245.25L205.253,245.081L205.64,244.914L206.027,244.748L206.414,244.583L206.803,244.42L207.192,244.258L207.582,244.098L207.973,243.939L208.364,243.781L208.756,243.625L209.149,243.471L209.195,243.453L209.547,243.326L209.947,243.184L210.347,243.043L210.747,242.904L211.149,242.767L211.551,242.631L211.953,242.497L212.356,242.365L212.76,242.234L213.165,242.105L213.57,241.978L213.975,241.853L214.382,241.73L214.789,241.608L215.196,241.488L215.604,241.37L216.013,241.254L216.422,241.14L216.832,241.028L217.242,240.918L217.653,240.81L218.065,240.703L218.477,240.599L218.89,240.497L219.303,240.397L219.716,240.299L220.131,240.203L220.545,240.109L220.961,240.017L221.376,239.927L221.793,239.84L222.209,239.755L222.627,239.672L223.044,239.591L223.462,239.512L223.881,239.436L224.3,239.362L224.72,239.29L225.139,239.221L225.56,239.154L225.98,239.09L226.401,239.027L226.823,238.968L227.245,238.91L227.667,238.855L228.089,238.803L228.512,238.753L228.935,238.706L229.359,238.661L229.783,238.619L230.207,238.579L230.631,238.542L231.056,238.507L231.481,238.475L231.906,238.446L232.331,238.42L232.756,238.396L233.182,238.374L233.608,238.356L234.034,238.34L234.46,238.327L234.887,238.317L235.313,238.31L235.74,238.305L236.166,238.303L236.593,238.304Z" style="fill:rgb(247,247,247);"/>
    </g>
    <g id="Layer4" transform="matrix(1,0,0,1,7.15036,4.98387)">
        <g transform="matrix(1,0,0,1,-3.0087,-1.90201)">
            <path d="M62.911,321.744C62.911,321.744 84.042,295.327 88.717,274.606C90.429,267.021 92.605,261.685 94.71,249.886C97.529,234.087 96.057,223.11 104.123,216.49C107.442,213.766 118.841,202.82 122.398,200.898C127.563,198.109 126.667,198.738 128.123,195.425C135.024,200.851 138.331,202.141 145.288,207.173C152.245,212.206 158.334,217.214 164.353,221.329C160.706,229.669 163.373,240.305 159.011,248.507C153.233,259.372 140.015,267.912 130.121,272.727C120.226,277.542 116.111,278.862 104.339,285.173C93.23,291.127 87.341,292.587 81.612,301.855C75.883,311.124 62.911,321.744 62.911,321.744Z" style="fill:rgb(102,102,102);stroke:rgb(204,204,204);stroke-width:8px;"/>
        </g>
        <path d="M63.725,318.131C85.096,290.368 107.612,261.078 107.563,231.49" style="fill:none;stroke:rgb(204,204,204);stroke-width:6px;"/>
        <g transform="matrix(0.469925,0.20645,-0.415395,0.945532,149.97,-14.7379)">
            <ellipse cx="121.214" cy="223.545" rx="10.062" ry="10.279" style="fill:rgb(204,204,204);stroke:rgb(204,204,204);stroke-width:7.36px;"/>
        </g>
        <path d="M142.231,157.124L125.09,192.128L167.437,222.485L195.146,195.45C173.596,186.764 155.39,174.582 142.231,157.124Z" style="fill:rgb(115,115,115);stroke:rgb(204,204,204);stroke-width:8px;"/>
        <path d="M307.908,52.883C303.142,63.549 272.034,114.607 261.082,127.776C250.129,140.946 215.14,181.717 208.169,187.457C202.994,191.719 198.537,196.752 192.906,195.619C185.601,194.149 173.139,185.701 165.364,180.671C157.589,175.64 145.215,164.179 142.808,160.615C140.402,157.051 139.509,148.963 141.917,140.657C144.326,132.351 165.131,95.065 178.436,78.956C190.546,64.295 215.055,44.675 215.055,44.675" style="fill:rgb(77,77,77);stroke:rgb(204,204,204);stroke-width:8px;"/>
        <path d="M151.114,169.93L135.251,198.845" style="fill:none;stroke:rgb(204,204,204);stroke-width:8px;"/>
        <path d="M145.963,171.208L133.854,192.632" style="fill:none;stroke:rgb(85,85,85);stroke-width:4px;"/>
        <path d="M181.882,198.412L166.786,213.603" style="fill:none;stroke:rgb(64,64,64);stroke-width:6px;"/>
        <path d="M159.373,158.351C163.657,143.233 174.035,119.634 187.151,102.043C202.723,81.159 222.494,61.409 234.964,51.825" style="fill:none;stroke:rgb(230,230,230);stroke-width:8px;"/>
        <path d="M193.729,186.039C205.886,176.747 229.688,149.42 243.799,132.616C260.123,113.175 285.721,73.418 295.196,57.072" style="fill:none;stroke:rgb(24,24,24);stroke-width:12px;"/>
    </g>
</svg>
