<?xml version="1.0" encoding="UTF-8" standalone="no"?>
<!DOCTYPE svg PUBLIC "-//W3C//DTD SVG 1.1//EN" "http://www.w3.org/Graphics/SVG/1.1/DTD/svg11.dtd">
<svg width="100%" height="100%" viewBox="0 0 400 400" version="1.1" xmlns="http://www.w3.org/2000/svg" xmlns:xlink="http://www.w3.org/1999/xlink" xml:space="preserve" xmlns:serif="http://www.serif.com/" style="fill-rule:evenodd;clip-rule:evenodd;stroke-linecap:round;stroke-linejoin:round;stroke-miterlimit:1.5;">
    <g transform="matrix(1.10432,0,0,0.908392,-57.2436,45.8639)">
        <g id="Layer2">
            <path d="M239.882,327.973L255.001,290.008C255.001,290.008 266.557,287.206 273.466,278.093C279.652,269.934 282.469,267.476 290.846,256.064C298.958,245.014 303.798,238.374 311.767,227.151C318.809,217.233 320.443,218.207 330.303,205.389C339.858,192.968 350.67,183.867 354.618,177.198C356.322,174.321 347.972,170.481 344.65,169.35C338.112,167.124 328.568,171.47 316.749,180.545C304.929,189.62 302.881,192.414 293.662,200.045C284.443,207.676 288.86,205.971 279.412,212.538C276.017,214.897 274.397,212.274 271.419,208.422C267.089,202.821 258.765,182.965 257.192,174.525C254.86,162.019 255.361,161.238 255.023,154.929C254.246,140.406 253.141,145.502 253.219,125.15C253.29,106.396 252.928,110.971 254.832,87.089C256.801,62.388 255.441,64.996 255.987,47.899C256.278,38.8 256.561,30.83 252.061,24.906C248.476,20.186 244.207,24.161 240.074,26.833C236.086,29.41 232.994,36.438 232.779,44.527C232.323,61.609 231.143,70.213 230.203,84.994C229.264,99.775 227.943,112.68 227.821,124.837C227.699,136.994 228.18,132.329 227.437,140.58C227.146,143.806 224.043,142.722 221.297,141.664C218.551,140.606 217.446,133.19 216.507,123.513C215.567,113.836 214.989,101.193 215.038,86.919C215.087,72.644 214.267,53.459 214.556,40.074C214.845,26.688 216.36,14.845 212.509,10.896C208.658,6.948 203.772,5.839 198.186,11.545C192.6,17.251 193.019,24.955 192.48,40.889C192,55.093 191.274,64.953 191.107,78.423C190.963,90.1 190.721,95.087 190.769,107.263C190.818,119.54 191.205,124.261 190.529,131.121C189.908,137.432 190.844,143.015 187.907,142.364C184.97,141.713 184.943,137.764 184.872,132.372C184.801,126.979 182.808,108.652 179.841,93.853C177.006,79.708 176.973,70.599 175.386,59.019C173.862,47.897 174.351,37.447 170.5,29.793C166.649,22.138 166.181,22.141 160.172,23.342C156.681,24.04 156.177,27.482 153.962,33.621C151.746,39.76 152.062,47.254 152.468,57.743C152.924,69.491 153.382,73.032 155.717,86.296C158.169,100.221 161.857,129.219 163.83,137.838C165.775,146.334 165.13,149.248 162.097,149.537C159.064,149.826 158.488,142.146 157.163,137.813C155.839,133.48 153.96,125.752 151,113.089C148.04,100.426 145.073,85.395 142.696,73.511C140.963,64.845 139.792,56.397 136.845,51.028C134.74,47.193 131.983,44.407 127,46.837C122.016,49.268 120.862,50.593 119.874,57.261C118.885,63.929 121.659,81.321 123.171,92.024C124.711,102.924 126.904,112.971 129.888,125.223C133.02,138.082 136.704,152.062 136.774,163.162C136.845,174.428 136.821,184.853 135.666,194.339C134.51,203.825 135.222,211.037 135.979,225.345C136.772,240.344 136.896,241.186 141.3,258.4C145.705,275.613 148.905,274.865 150.013,284.688C151.841,300.883 148.175,317.623 144.154,327.733" style="fill:rgb(38,38,38);stroke:rgb(247,247,247);stroke-width:9.89px;"/>
        </g>
    </g>
</svg>
