<?xml version="1.0" encoding="UTF-8" standalone="no"?>
<!DOCTYPE svg PUBLIC "-//W3C//DTD SVG 1.1//EN" "http://www.w3.org/Graphics/SVG/1.1/DTD/svg11.dtd">
<svg width="100%" height="100%" viewBox="0 0 400 400" version="1.1" xmlns="http://www.w3.org/2000/svg" xmlns:xlink="http://www.w3.org/1999/xlink" xml:space="preserve" xmlns:serif="http://www.serif.com/" style="fill-rule:evenodd;clip-rule:evenodd;stroke-linejoin:round;stroke-miterlimit:2;">
    <path d="M200,93C291.066,93 365,140.945 365,200C365,259.055 291.066,307 200,307C108.934,307 35,259.055 35,200C35,140.945 108.934,93 200,93ZM200,105C284.443,105 353,147.568 353,200C353,252.432 284.443,295 200,295C115.557,295 47,252.432 47,200C47,147.568 115.557,105 200,105Z" style="fill:rgb(235,235,235);"/>
    <path d="M200,105C284.443,105 353,147.568 353,200C353,252.432 284.443,295 200,295C115.557,295 47,252.432 47,200C47,147.568 115.557,105 200,105ZM200,117C277.82,117 341,154.191 341,200C341,245.809 277.82,283 200,283C122.18,283 59,245.809 59,200C59,154.191 122.18,117 200,117Z" style="fill:rgb(38,38,38);"/>
    <path d="M200,117C277.82,117 341,154.191 341,200C341,245.809 277.82,283 200,283C122.18,283 59,245.809 59,200C59,154.191 122.18,117 200,117ZM200,129C271.197,129 329,160.814 329,200C329,239.186 271.197,271 200,271C128.803,271 71,239.186 71,200C71,160.814 128.803,129 200,129Z" style="fill:rgb(248,248,248);"/>
</svg>
