<?xml version="1.0" encoding="UTF-8" standalone="no"?>
<!DOCTYPE svg PUBLIC "-//W3C//DTD SVG 1.1//EN" "http://www.w3.org/Graphics/SVG/1.1/DTD/svg11.dtd">
<svg width="100%" height="100%" viewBox="0 0 38 38" version="1.1" xmlns="http://www.w3.org/2000/svg" xmlns:xlink="http://www.w3.org/1999/xlink" xml:space="preserve" xmlns:serif="http://www.serif.com/" style="fill-rule:evenodd;clip-rule:evenodd;stroke-linejoin:round;stroke-miterlimit:1.5;">
    <g transform="matrix(0.978586,0,0,1,1.37075,-1.71168)">
        <path d="M7.811,28.232C6.198,27.258 3.676,25.161 3.32,24.499C2.818,23.565 2.107,22.869 2.007,21.826C1.731,18.934 3.56,15.868 5.498,13.815C6.312,12.952 7.266,11.725 8.492,11.684C12.21,11.557 13.172,14.099 15.681,14.526C16.886,14.731 18.229,14.915 19.399,14.226C20.455,13.604 21.254,12.412 22.001,10.901C22.326,10.244 23.401,8.471 24.018,7.667C24.866,6.564 25.776,5.371 28.326,5.486C29.882,5.557 32.968,10.285 33.61,12.737C34.117,14.673 34.184,17.014 33.849,18.963C33.3,22.164 32.677,24.802 31.342,27.803C30.77,29.09 30.234,30.26 29.111,31.162C27.919,32.121 26.366,33.026 24.951,33.525C23.773,33.94 22.313,33.974 21.049,34.05C19.257,34.156 17.398,33.598 15.861,32.675C14.629,31.936 13.207,31.227 11.891,30.621C11.093,30.254 8.578,28.696 7.811,28.232Z" style="fill:rgb(162,216,227);fill-opacity:0.5;stroke:rgb(162,216,227);stroke-width:1.01px;stroke-dasharray:1.01,1.01;"/>
    </g>
</svg>
