<?xml version="1.0" encoding="UTF-8" standalone="no"?><!DOCTYPE svg PUBLIC "-//W3C//DTD SVG 1.1//EN" "http://www.w3.org/Graphics/SVG/1.1/DTD/svg11.dtd"><svg width="100%" height="100%" viewBox="0 0 199 171" version="1.1" xmlns="http://www.w3.org/2000/svg" xmlns:xlink="http://www.w3.org/1999/xlink" xml:space="preserve" xmlns:serif="http://www.serif.com/" style="fill-rule:evenodd;clip-rule:evenodd;stroke-linecap:round;stroke-miterlimit:40;"><rect x="0.015" y="0.333" width="198.007" height="170" style="fill:none;"/><clipPath id="_clip1"><rect x="0.015" y="0.333" width="198.007" height="170"/></clipPath><g clip-path="url(#_clip1)"><path d="M110.996,114.969l0.007,22.414l87.019,-0.025l-0.006,-22.414l-87.02,0.025Z" style="fill:#c4eeff;"/><rect x="142.643" y="83.313" width="22.414" height="87.02" style="fill:#c4eeff;"/><path d="M68.747,88.515c-6.127,0.106 -14.519,2.804 -17.716,6.113c-12.652,13.097 -14.421,33.179 -22.966,48.904c-3.711,6.829 -8.748,11.215 -15.747,14.263c-5.769,2.512 -12.884,6.949 -12.266,7.073c3.732,0.747 24.338,-0.347 26.701,-0.281c5.205,0.147 13.178,-0.171 18.696,-1.209c14.088,-2.651 31.888,-12.314 37.077,-26.638c3.971,-10.961 1.062,-22.655 4.594,-33.621" style="fill:#c4eeff;fill-opacity:0.505882;stroke:#c4eeff;stroke-width:10.86px;"/><path d="M68.612,88.792c1.06,0.687 2.856,1.742 4.212,2.905c3.063,2.625 6.661,4.705 9.878,7.118c1.55,1.162 3.714,2.261 4.794,3.341c0.895,0.895 3.874,-0.997 4.649,-1.307c2.573,-1.03 3.726,-3.134 5.963,-4.912c2.094,-1.665 1.838,-5.604 2.501,-6.268c0.399,-0.399 -1.693,-2.56 -1.833,-2.7c-2.038,-2.039 -5.996,-4.654 -8.448,-6.187c-3.953,-2.471 -3.377,-2.98 -7.335,-5.355c-2.026,-1.215 -2.471,-2.428 -4.794,-2.76c-4.351,-0.622 -8.919,6.36 -9.442,10.023c-0.149,1.042 -0.145,6.102 -0.145,6.102Z" style="fill:none;stroke:#c4eeff;stroke-width:10.86px;stroke-linejoin:round;stroke-miterlimit:1.5;"/><path d="M127.559,0.333l-49.536,72.295" style="fill:none;stroke:#c4eeff;stroke-width:10.86px;stroke-linejoin:round;stroke-miterlimit:1.5;"/><path d="M154.509,12.835l-53.9,75.68" style="fill:none;stroke:#c4eeff;stroke-width:10.86px;stroke-linejoin:round;stroke-miterlimit:1.5;"/></g></svg>