<?xml version="1.0" encoding="UTF-8" standalone="no"?>
<!DOCTYPE svg PUBLIC "-//W3C//DTD SVG 1.1//EN" "http://www.w3.org/Graphics/SVG/1.1/DTD/svg11.dtd">
<svg width="100%" height="100%" viewBox="0 0 400 52" version="1.1" xmlns="http://www.w3.org/2000/svg" xmlns:xlink="http://www.w3.org/1999/xlink" xml:space="preserve" xmlns:serif="http://www.serif.com/" style="fill-rule:evenodd;clip-rule:evenodd;stroke-linecap:round;stroke-linejoin:round;stroke-miterlimit:1.5;">
    <g transform="matrix(2.06523,0,0,1.08781,-6.74676,-1.60025)">
        <path d="M195.982,25.372C195.982,13.196 190.775,3.31 184.361,3.31L15.856,3.31C9.442,3.31 4.235,13.196 4.235,25.372C4.235,37.549 9.442,47.435 15.856,47.435L184.361,47.435C190.775,47.435 195.982,37.549 195.982,25.372Z" style="fill:rgb(35,38,42);stroke:rgb(217,242,230);stroke-width:0.61px;"/>
    </g>
    <g transform="matrix(9.28659e-17,-1.51661,1.66541,1.01977e-16,-26.2744,80.6934)">
        <path d="M36.063,22.982L42.654,33.79L29.472,33.79L36.063,22.982Z" style="fill:rgb(217,242,230);fill-opacity:0.51;stroke:rgb(217,242,230);stroke-width:0.63px;"/>
    </g>
    <g transform="matrix(-2.82003e-16,1.51661,-1.66541,-3.02526e-16,426.274,-28.6934)">
        <path d="M36.063,22.982L42.654,33.79L29.472,33.79L36.063,22.982Z" style="fill:rgb(217,242,230);fill-opacity:0.51;stroke:rgb(217,242,230);stroke-width:0.63px;"/>
    </g>
    <g transform="matrix(1,0,0,1.00874,-5.19231,-0.758551)">
        <path d="M45.192,6.7L45.192,46.353" style="fill:none;stroke:rgb(217,242,230);stroke-opacity:0.71;stroke-width:1px;"/>
    </g>
    <g transform="matrix(1,0,0,1.00874,314.808,-0.758551)">
        <path d="M45.192,6.7L45.192,46.353" style="fill:none;stroke:rgb(217,242,230);stroke-opacity:0.71;stroke-width:1px;"/>
    </g>
</svg>
