<?xml version="1.0" encoding="UTF-8" standalone="no"?>
<!DOCTYPE svg PUBLIC "-//W3C//DTD SVG 1.1//EN" "http://www.w3.org/Graphics/SVG/1.1/DTD/svg11.dtd">
<svg width="100%" height="100%" viewBox="0 0 40 40" version="1.1" xmlns="http://www.w3.org/2000/svg" xmlns:xlink="http://www.w3.org/1999/xlink" xml:space="preserve" xmlns:serif="http://www.serif.com/" style="fill-rule:evenodd;clip-rule:evenodd;stroke-linecap:round;stroke-linejoin:round;stroke-miterlimit:1.5;">
    <path d="M0.607,0.359C0.633,0.304 0.568,0.475 0.558,0.535C0.539,0.655 0.533,0.777 0.527,0.898C0.51,1.27 0.504,1.644 0.503,2.016C0.499,3.23 0.524,4.439 0.619,5.649C0.89,9.11 1.765,12.406 2.895,15.679C3.687,17.973 4.731,20.205 5.934,22.313C8.207,26.295 10.931,29.859 14.146,33.106C14.551,33.515 14.878,33.989 15.304,34.377C16.264,35.251 17.339,35.954 18.402,36.69C19.188,37.235 19.992,37.914 20.872,38.306C22.194,38.896 23.658,39.146 25.086,39.284L25.105,39.138C25.204,39.18 24.837,38.855 24.754,38.787C24.468,38.552 24.196,38.305 23.936,38.042C23.179,37.274 22.47,36.441 21.818,35.582C21.425,35.064 20.951,34.613 20.565,34.092C18.975,31.944 17.644,29.518 16.577,27.071C15.228,23.974 14.68,20.706 14.119,17.407C14.002,16.724 13.753,16.076 13.621,15.398C13.491,14.739 13.517,14.063 13.436,13.398C13.355,12.743 13.165,12.127 13.145,11.465C13.056,8.548 12.993,5.619 12.961,2.702C12.955,2.179 12.895,1.546 12.957,1.033C13.009,0.601 13.121,0.281 13.074,-0.134" style="fill:rgb(209,236,241);fill-opacity:0.55;stroke:rgb(195,237,245);stroke-width:1px;"/>
    <g transform="matrix(0.999706,-0.0242486,-0.0242486,-0.999706,11.9371,49.949)">
        <g transform="matrix(1,0,0,1,4.84873,1.74438)">
            <path d="M13.795,14.324C13.819,14.358 13.727,14.198 13.707,14.171C13.634,14.075 13.553,13.985 13.466,13.901C13.193,13.636 12.915,13.355 12.585,13.161C12.153,12.908 11.662,12.865 11.222,12.652C10.639,12.37 10.114,11.856 9.702,11.366C9.361,10.96 9.156,10.525 8.934,10.049C8.866,9.905 8.794,9.763 8.749,9.61C8.728,9.54 8.698,9.346 8.672,9.385L8.607,8.938C8.555,9.027 8.787,9.16 8.838,9.196C9.093,9.372 9.444,9.447 9.75,9.392C10.434,9.267 10.978,8.86 11.619,8.643C12.367,8.39 13.202,8.5 13.91,8.828C15.211,9.43 15.542,10.818 15.627,12.12C15.651,12.494 15.548,13.594 16.096,13.619" style="fill:rgb(89,135,143);stroke:rgb(188,236,245);stroke-width:1px;"/>
        </g>
        <g transform="matrix(1,0,0,1,4.84873,1.74438)">
            <path d="M14.304,14.485C14.299,14.445 14.595,14.914 14.702,15.055C15.024,15.481 15.209,16.103 15.587,16.471C15.601,16.485 15.664,16.371 15.692,16.35C15.794,16.276 15.911,16.213 16.018,16.147C16.187,16.042 16.624,15.975 16.721,15.781C16.776,15.672 16.408,15.211 16.36,15.129C16.165,14.801 16.015,14.449 15.834,14.113C15.807,14.062 15.707,13.819 15.655,13.795C15.582,13.761 15.557,13.934 15.482,13.964C15.263,14.049 14.841,14.052 14.797,14.352" style="fill:rgb(209,236,241);fill-opacity:0.55;stroke:rgb(190,232,239);stroke-width:1px;"/>
        </g>
        <g transform="matrix(1,0,0,1,4.84873,1.74438)">
            <path d="M15.629,16.218C15.681,16.158 15.657,16.39 15.668,16.445C15.704,16.622 15.746,16.798 15.789,16.974C15.904,17.451 16.027,17.925 16.138,18.403C16.463,19.792 17.035,20.973 17.676,22.235C19.155,25.144 21.232,27.404 23.579,29.619C24.31,30.308 25.031,30.889 25.852,31.467C26.239,31.74 26.613,32.06 27.062,32.227L27.325,32.323C27.296,32.429 27.022,31.699 26.996,31.632C26.797,31.114 26.575,30.602 26.401,30.074C25.896,28.543 25.398,26.998 24.719,25.533C23.412,22.712 21.447,20.225 19.396,17.901C18.866,17.302 18.234,16.739 17.625,16.22C17.4,16.028 16.975,15.824 16.862,15.539" style="fill:rgb(124,180,190);stroke:rgb(190,232,239);stroke-width:1px;"/>
        </g>
    </g>
</svg>
