<?xml version="1.0" encoding="UTF-8" standalone="no"?>
<!DOCTYPE svg PUBLIC "-//W3C//DTD SVG 1.1//EN" "http://www.w3.org/Graphics/SVG/1.1/DTD/svg11.dtd">
<svg width="100%" height="100%" viewBox="0 0 40 40" version="1.1" xmlns="http://www.w3.org/2000/svg" xmlns:xlink="http://www.w3.org/1999/xlink" xml:space="preserve" xmlns:serif="http://www.serif.com/" style="fill-rule:evenodd;clip-rule:evenodd;stroke-linecap:round;stroke-linejoin:round;stroke-miterlimit:1.5;">
    <g transform="matrix(1.56974,0,0,1,-0.937363,0)">
        <path d="M21.925,38.209L1.788,37.98L1.645,1.688C1.645,1.819 2.114,2.007 2.198,2.052C2.77,2.365 3.303,2.632 3.78,3.089C4.338,3.624 4.961,4.089 5.477,4.667C6.58,5.902 7.428,7.366 8.16,8.848C10.279,13.142 10.21,17.897 10.858,22.515C11.187,24.861 11.957,27.096 12.807,29.299C13.811,31.9 15.507,34.794 17.924,36.302C18.777,36.834 19.702,37.228 20.564,37.742C20.839,37.906 21.147,38.025 21.457,38.101C21.568,38.128 21.68,38.147 21.792,38.172C21.819,38.178 21.942,38.219 21.925,38.209Z" style="fill:rgb(241,218,209);fill-opacity:0.52;"/>
    </g>
    <g transform="matrix(1.56974,0,0,1,-0.937363,0)">
        <path d="M1.645,1.688C1.645,1.819 2.114,2.007 2.198,2.052C2.77,2.365 3.303,2.632 3.78,3.089C4.338,3.624 4.961,4.089 5.477,4.667C6.58,5.902 7.428,7.366 8.16,8.848C10.279,13.142 10.21,17.897 10.858,22.515C11.187,24.861 11.957,27.096 12.807,29.299C13.811,31.9 15.507,34.794 17.924,36.302C18.777,36.834 19.702,37.228 20.564,37.742C20.839,37.906 21.147,38.025 21.457,38.101C21.568,38.128 21.68,38.147 21.792,38.172C21.819,38.178 21.942,38.219 21.925,38.209" style="fill:none;stroke:rgb(248,211,196);stroke-width:0.76px;"/>
    </g>
    <g transform="matrix(0.99241,-0.122975,0.122975,0.99241,-1.35538,2.14129)">
        <g transform="matrix(1,0,0,1,4.84873,1.74438)">
            <path d="M13.795,14.324C13.819,14.358 13.727,14.198 13.707,14.171C13.634,14.075 13.553,13.985 13.466,13.901C13.193,13.636 12.915,13.355 12.585,13.161C12.153,12.908 11.662,12.865 11.222,12.652C10.639,12.37 10.114,11.856 9.702,11.366C9.361,10.96 9.156,10.525 8.934,10.049C8.866,9.905 8.794,9.763 8.749,9.61C8.728,9.54 8.698,9.346 8.672,9.385L8.607,8.938C8.555,9.027 8.787,9.16 8.838,9.196C9.093,9.372 9.444,9.447 9.75,9.392C10.434,9.267 10.978,8.86 11.619,8.643C12.367,8.39 13.202,8.5 13.91,8.828C15.211,9.43 15.542,10.818 15.627,12.12C15.651,12.494 15.548,13.594 16.096,13.619" style="fill:rgb(143,105,89);stroke:rgb(248,211,196);stroke-width:1px;"/>
        </g>
        <g transform="matrix(1,0,0,1,4.84873,1.74438)">
            <path d="M14.304,14.485C14.299,14.445 14.595,14.914 14.702,15.055C15.024,15.481 15.209,16.103 15.587,16.471C15.601,16.485 15.664,16.371 15.692,16.35C15.794,16.276 15.911,16.213 16.018,16.147C16.187,16.042 16.624,15.975 16.721,15.781C16.776,15.672 16.408,15.211 16.36,15.129C16.165,14.801 16.015,14.449 15.834,14.113C15.807,14.062 15.707,13.819 15.655,13.795C15.582,13.761 15.557,13.934 15.482,13.964C15.263,14.049 14.841,14.052 14.797,14.352" style="fill:rgb(241,218,209);fill-opacity:0.55;stroke:rgb(248,211,196);stroke-width:1px;"/>
        </g>
        <g transform="matrix(1,0,0,1,4.84873,1.74438)">
            <path d="M15.629,16.218C15.681,16.158 15.657,16.39 15.668,16.445C15.704,16.622 15.746,16.798 15.789,16.974C15.904,17.451 16.027,17.925 16.138,18.403C16.463,19.792 17.035,20.973 17.676,22.235C19.155,25.144 21.232,27.404 23.579,29.619C24.31,30.308 25.031,30.889 25.852,31.467C26.239,31.74 26.613,32.06 27.062,32.227L27.325,32.323C27.296,32.429 27.022,31.699 26.996,31.632C26.797,31.114 26.575,30.602 26.401,30.074C25.896,28.543 25.398,26.998 24.719,25.533C23.412,22.712 21.447,20.225 19.396,17.901C18.866,17.302 18.234,16.739 17.625,16.22C17.4,16.028 16.975,15.824 16.862,15.539" style="fill:rgb(190,142,124);stroke:rgb(248,211,196);stroke-width:1px;"/>
        </g>
    </g>
    <g transform="matrix(1,0,0,1,3.62649,1.13379)">
        <path d="M5.937,3.685C5.943,3.685 5.764,3.682 5.715,3.682C5.57,3.682 5.431,3.724 5.304,3.797C4.955,3.998 4.678,4.422 4.615,4.817C4.449,5.87 5.279,6.681 6.309,6.576C7.359,6.469 8.042,4.789 7.259,4.016C6.999,3.759 6.746,3.78 6.437,3.656C6.404,3.643 6.182,3.503 6.157,3.592" style="fill:none;stroke:rgb(248,211,196);stroke-width:1px;"/>
    </g>
    <g transform="matrix(1,0,0,1,3.62649,1.13379)">
        <path d="M5.379,3.922C5.44,3.948 5.38,3.911 5.311,3.779C5.267,3.694 5.224,3.612 5.169,3.532C4.995,3.281 4.829,3.028 4.633,2.794C4.062,2.113 3.578,1.397 3.185,0.61" style="fill:none;stroke:rgb(248,211,196);stroke-width:1px;"/>
    </g>
    <g transform="matrix(1,0,0,1,3.62649,1.13379)">
        <path d="M7.236,6.085C7.118,5.957 7.559,6.799 7.606,6.878C7.922,7.422 8.349,7.933 8.773,8.397C8.896,8.531 8.982,8.668 9.07,8.826C9.079,8.842 9.218,9.059 9.226,9.017" style="fill:none;stroke:rgb(248,211,196);stroke-width:1px;"/>
    </g>
    <g transform="matrix(1,0,0,1,6.56713,-1.10033)">
        <path d="M16.701,33.832C16.701,33.694 16.459,33.723 16.379,33.723C16.042,33.723 15.772,33.988 15.57,34.229C14.618,35.361 15.731,36.767 17.075,36.633C18.777,36.463 18.361,33.519 16.746,33.519" style="fill:none;stroke:rgb(248,211,196);stroke-width:1px;"/>
    </g>
    <g transform="matrix(1,0,0,1,6.56713,-1.10033)">
        <path d="M15.42,34.271C15.484,34.436 14.989,33.965 14.957,33.929C14.661,33.591 14.319,33.296 13.957,33.029C13.16,32.443 12.433,31.832 11.682,31.188C11.495,31.027 10.935,30.682 10.9,30.401" style="fill:none;stroke:rgb(248,211,196);stroke-width:1px;"/>
    </g>
    <g transform="matrix(1,0,0,1,6.56713,-1.10033)">
        <path d="M17.816,36.454C17.847,36.497 17.892,36.499 17.94,36.499" style="fill:none;stroke:rgb(248,211,196);stroke-width:1px;"/>
    </g>
    <g transform="matrix(1,0,0,1,6.56713,-1.10033)">
        <path d="M17.836,36.482C18.643,36.6 19.49,37.313 20.133,37.77" style="fill:none;stroke:rgb(248,211,196);stroke-width:1px;"/>
    </g>
    <path d="M15.195,12.257C15.542,12.888 16.683,13.441 17.351,13.616C17.908,13.762 18.878,13.913 19.211,14.485" style="fill:none;stroke:rgb(85,45,29);stroke-width:1px;"/>
    <path d="M25.123,23.105C25.64,23.666 26.045,24.306 26.554,24.873C27.929,26.406 29.519,27.905 31.23,29.03C31.679,29.326 32.062,29.785 32.542,30.025" style="fill:none;stroke:rgb(85,45,29);stroke-width:1px;"/>
</svg>
